{
	"asset":{
		"generator":"Khronos glTF Blender I/O v5.1.18",
		"version":"2.0"
	},
	"scene":0,
	"scenes":[
		{
			"name":"Scene",
			"nodes":[
				0,
				1,
				2,
				3,
				4,
				5,
				6,
				7,
				8,
				9,
				10,
				11,
				12
			]
		}
	],
	"nodes":[
		{
			"mesh":0,
			"name":"Cube"
		},
		{
			"mesh":1,
			"name":"Cube.011"
		},
		{
			"mesh":2,
			"name":"Cube.012"
		},
		{
			"mesh":3,
			"name":"Cube.013",
			"translation":[
				-0.1342407613992691,
				0,
				-0.23108252882957458
			]
		},
		{
			"mesh":4,
			"name":"Cube.014",
			"translation":[
				-0.5742923617362976,
				0,
				-0.6769797801971436
			]
		},
		{
			"mesh":5,
			"name":"Cube.015"
		},
		{
			"mesh":6,
			"name":"Cube.016"
		},
		{
			"mesh":7,
			"name":"Cube.017"
		},
		{
			"mesh":8,
			"name":"Cube.018"
		},
		{
			"mesh":9,
			"name":"Cube.019"
		},
		{
			"mesh":10,
			"name":"Cube.020"
		},
		{
			"mesh":11,
			"name":"Cube.021"
		},
		{
			"mesh":12,
			"name":"Cube.022"
		}
	],
	"materials":[
		{
			"doubleSided":true,
			"name":"Material.002",
			"pbrMetallicRoughness":{
				"baseColorTexture":{
					"index":0
				},
				"metallicFactor":0.16153846681118011,
				"roughnessFactor":0.5076923370361328
			}
		},
		{
			"doubleSided":true,
			"emissiveFactor":[
				1,
				1,
				1
			],
			"emissiveTexture":{
				"index":1
			},
			"name":"Material.001",
			"pbrMetallicRoughness":{
				"baseColorFactor":[
					0,
					0,
					0,
					1
				]
			}
		},
		{
			"doubleSided":true,
			"emissiveFactor":[
				0.6732644438743591,
				0.5479767918586731,
				0.2632516920566559
			],
			"name":"Material",
			"pbrMetallicRoughness":{
				"baseColorFactor":[
					0,
					0,
					0,
					1
				]
			}
		},
		{
			"doubleSided":true,
			"name":"Material.003",
			"pbrMetallicRoughness":{
				"baseColorTexture":{
					"index":2
				},
				"metallicFactor":0,
				"roughnessFactor":0.5
			}
		},
		{
			"doubleSided":true,
			"name":"Material.005",
			"pbrMetallicRoughness":{
				"baseColorTexture":{
					"index":3
				},
				"metallicFactor":0,
				"roughnessFactor":0.5
			}
		}
	],
	"meshes":[
		{
			"name":"Cube",
			"primitives":[
				{
					"attributes":{
						"POSITION":0,
						"NORMAL":1,
						"TEXCOORD_0":2
					},
					"indices":3,
					"material":0
				}
			]
		},
		{
			"name":"Cube.017",
			"primitives":[
				{
					"attributes":{
						"POSITION":4,
						"NORMAL":5,
						"TEXCOORD_0":6
					},
					"indices":7,
					"material":1
				}
			]
		},
		{
			"name":"Cube.018",
			"primitives":[
				{
					"attributes":{
						"POSITION":8,
						"NORMAL":9,
						"TEXCOORD_0":10
					},
					"indices":11,
					"material":1
				}
			]
		},
		{
			"name":"Cube.024",
			"primitives":[
				{
					"attributes":{
						"POSITION":12,
						"NORMAL":13,
						"TEXCOORD_0":14
					},
					"indices":15
				}
			]
		},
		{
			"name":"Cube.025",
			"primitives":[
				{
					"attributes":{
						"POSITION":16,
						"NORMAL":17,
						"TEXCOORD_0":18
					},
					"indices":19,
					"material":1
				}
			]
		},
		{
			"name":"Cube.001",
			"primitives":[
				{
					"attributes":{
						"POSITION":20,
						"NORMAL":21,
						"TEXCOORD_0":22
					},
					"indices":23,
					"material":2
				}
			]
		},
		{
			"name":"Cube.002",
			"primitives":[
				{
					"attributes":{
						"POSITION":24,
						"NORMAL":25,
						"TEXCOORD_0":26
					},
					"indices":27,
					"material":3
				}
			]
		},
		{
			"name":"Cube.003",
			"primitives":[
				{
					"attributes":{
						"POSITION":28,
						"NORMAL":29,
						"TEXCOORD_0":30
					},
					"indices":31,
					"material":3
				}
			]
		},
		{
			"name":"Cube.007",
			"primitives":[
				{
					"attributes":{
						"POSITION":32,
						"NORMAL":33,
						"TEXCOORD_0":34
					},
					"indices":35,
					"material":3
				}
			]
		},
		{
			"name":"Cube.008",
			"primitives":[
				{
					"attributes":{
						"POSITION":36,
						"NORMAL":37,
						"TEXCOORD_0":38
					},
					"indices":39,
					"material":3
				}
			]
		},
		{
			"name":"Cube.014",
			"primitives":[
				{
					"attributes":{
						"POSITION":40,
						"NORMAL":41,
						"TEXCOORD_0":42
					},
					"indices":43,
					"material":4
				}
			]
		},
		{
			"name":"Cube.019",
			"primitives":[
				{
					"attributes":{
						"POSITION":44,
						"NORMAL":45,
						"TEXCOORD_0":46
					},
					"indices":47,
					"material":1
				}
			]
		},
		{
			"name":"Cube.020",
			"primitives":[
				{
					"attributes":{
						"POSITION":48,
						"NORMAL":49,
						"TEXCOORD_0":50
					},
					"indices":51,
					"material":4
				}
			]
		}
	],
	"textures":[
		{
			"sampler":0,
			"source":0
		},
		{
			"sampler":0,
			"source":1
		},
		{
			"sampler":0,
			"source":2
		},
		{
			"sampler":0,
			"source":3
		}
	],
	"images":[
		{
			"mimeType":"image/jpeg",
			"name":"2053822-1926107767",
			"uri":"2053822-1926107767.jpg"
		},
		{
			"mimeType":"image/jpeg",
			"name":"brick-texture-2106361449",
			"uri":"brick-texture-2106361449.jpg"
		},
		{
			"mimeType":"image/jpeg",
			"name":"139-stone-block-wall-pbr-texture-seamless-hr-1488102640",
			"uri":"139-stone-block-wall-pbr-texture-seamless-hr-1488102640.jpg"
		},
		{
			"mimeType":"image/jpeg",
			"name":"Seamless-Wood-Texture-5-2301751210",
			"uri":"Seamless-Wood-Texture-5-2301751210.jpg"
		}
	],
	"accessors":[
		{
			"bufferView":0,
			"componentType":5126,
			"count":1436,
			"max":[
				3.680976390838623,
				8.308926582336426,
				2.3364059925079346
			],
			"min":[
				-2.3364059925079346,
				0.0370173454284668,
				-2.3364059925079346
			],
			"type":"VEC3"
		},
		{
			"bufferView":1,
			"componentType":5126,
			"count":1436,
			"type":"VEC3"
		},
		{
			"bufferView":2,
			"componentType":5126,
			"count":1436,
			"type":"VEC2"
		},
		{
			"bufferView":3,
			"componentType":5123,
			"count":3537,
			"type":"SCALAR"
		},
		{
			"bufferView":4,
			"componentType":5126,
			"count":59,
			"max":[
				2.1973769664764404,
				2.9590182304382324,
				1.9139777421951294
			],
			"min":[
				1.7884025573730469,
				1.244248390197754,
				0.8538140058517456
			],
			"type":"VEC3"
		},
		{
			"bufferView":5,
			"componentType":5126,
			"count":59,
			"type":"VEC3"
		},
		{
			"bufferView":6,
			"componentType":5126,
			"count":59,
			"type":"VEC2"
		},
		{
			"bufferView":7,
			"componentType":5123,
			"count":99,
			"type":"SCALAR"
		},
		{
			"bufferView":8,
			"componentType":5126,
			"count":32,
			"max":[
				2.240288734436035,
				2.9831528663635254,
				1.951587438583374
			],
			"min":[
				1.997451901435852,
				2.8116471767425537,
				0.818760097026825
			],
			"type":"VEC3"
		},
		{
			"bufferView":9,
			"componentType":5126,
			"count":32,
			"type":"VEC3"
		},
		{
			"bufferView":10,
			"componentType":5126,
			"count":32,
			"type":"VEC2"
		},
		{
			"bufferView":11,
			"componentType":5123,
			"count":60,
			"type":"SCALAR"
		},
		{
			"bufferView":12,
			"componentType":5126,
			"count":60,
			"max":[
				2.039461374282837,
				2.0567657947540283,
				1.413895845413208
			],
			"min":[
				1.9349212646484375,
				1.9967658519744873,
				1.353895902633667
			],
			"type":"VEC3"
		},
		{
			"bufferView":13,
			"componentType":5126,
			"count":60,
			"type":"VEC3"
		},
		{
			"bufferView":14,
			"componentType":5126,
			"count":60,
			"type":"VEC2"
		},
		{
			"bufferView":15,
			"componentType":5123,
			"count":102,
			"type":"SCALAR"
		},
		{
			"bufferView":16,
			"componentType":5126,
			"count":3840,
			"max":[
				2.6897666454315186,
				8.122955322265625,
				2.796586275100708
			],
			"min":[
				-1.535301923751831,
				1.1123971939086914,
				-1.4393730163574219
			],
			"type":"VEC3"
		},
		{
			"bufferView":17,
			"componentType":5126,
			"count":3840,
			"type":"VEC3"
		},
		{
			"bufferView":18,
			"componentType":5126,
			"count":3840,
			"type":"VEC2"
		},
		{
			"bufferView":19,
			"componentType":5123,
			"count":5760,
			"type":"SCALAR"
		},
		{
			"bufferView":20,
			"componentType":5126,
			"count":560,
			"max":[
				1.9949175119400024,
				7.612356185913086,
				2.021874189376831
			],
			"min":[
				-2.015730619430542,
				1.5787665843963623,
				-2.017997980117798
			],
			"type":"VEC3"
		},
		{
			"bufferView":21,
			"componentType":5126,
			"count":560,
			"type":"VEC3"
		},
		{
			"bufferView":22,
			"componentType":5126,
			"count":560,
			"type":"VEC2"
		},
		{
			"bufferView":23,
			"componentType":5123,
			"count":840,
			"type":"SCALAR"
		},
		{
			"bufferView":24,
			"componentType":5126,
			"count":143,
			"max":[
				3.680976390838623,
				1.240346908569336,
				2.2946438789367676
			],
			"min":[
				-2.2946438789367676,
				0.0370173454284668,
				-2.2946438789367676
			],
			"type":"VEC3"
		},
		{
			"bufferView":25,
			"componentType":5126,
			"count":143,
			"type":"VEC3"
		},
		{
			"bufferView":26,
			"componentType":5126,
			"count":143,
			"type":"VEC2"
		},
		{
			"bufferView":27,
			"componentType":5123,
			"count":339,
			"type":"SCALAR"
		},
		{
			"bufferView":28,
			"componentType":5126,
			"count":24,
			"max":[
				3.680976390838623,
				1.240346908569336,
				2.0758438110351562
			],
			"min":[
				2.0758438110351562,
				0.29381269216537476,
				0.6919479370117188
			],
			"type":"VEC3"
		},
		{
			"bufferView":29,
			"componentType":5126,
			"count":24,
			"type":"VEC3"
		},
		{
			"bufferView":30,
			"componentType":5126,
			"count":24,
			"type":"VEC2"
		},
		{
			"bufferView":31,
			"componentType":5123,
			"count":42,
			"type":"SCALAR"
		},
		{
			"bufferView":32,
			"componentType":5126,
			"count":30,
			"max":[
				3.680976390838623,
				1.240346908569336,
				2.0758438110351562
			],
			"min":[
				2.0758438110351562,
				0.0370173454284668,
				0.6919479370117188
			],
			"type":"VEC3"
		},
		{
			"bufferView":33,
			"componentType":5126,
			"count":30,
			"type":"VEC3"
		},
		{
			"bufferView":34,
			"componentType":5126,
			"count":30,
			"type":"VEC2"
		},
		{
			"bufferView":35,
			"componentType":5123,
			"count":78,
			"type":"SCALAR"
		},
		{
			"bufferView":36,
			"componentType":5126,
			"count":160,
			"max":[
				2.3364059925079346,
				8.308926582336426,
				2.3364059925079346
			],
			"min":[
				-2.3364059925079346,
				3.0952839851379395,
				-2.3364059925079346
			],
			"type":"VEC3"
		},
		{
			"bufferView":37,
			"componentType":5126,
			"count":160,
			"type":"VEC3"
		},
		{
			"bufferView":38,
			"componentType":5126,
			"count":160,
			"type":"VEC2"
		},
		{
			"bufferView":39,
			"componentType":5123,
			"count":360,
			"type":"SCALAR"
		},
		{
			"bufferView":40,
			"componentType":5126,
			"count":145,
			"max":[
				2.0758438110351562,
				2.8179829120635986,
				1.7741987705230713
			],
			"min":[
				1.8179559707641602,
				1.244248390197754,
				0.9946722388267517
			],
			"type":"VEC3"
		},
		{
			"bufferView":41,
			"componentType":5126,
			"count":145,
			"type":"VEC3"
		},
		{
			"bufferView":42,
			"componentType":5126,
			"count":145,
			"type":"VEC2"
		},
		{
			"bufferView":43,
			"componentType":5123,
			"count":306,
			"type":"SCALAR"
		},
		{
			"bufferView":44,
			"componentType":5126,
			"count":2079,
			"max":[
				2.1846606731414795,
				7.810093879699707,
				2.2116172313690186
			],
			"min":[
				-2.2054736614227295,
				1.445674180984497,
				-2.2077410221099854
			],
			"type":"VEC3"
		},
		{
			"bufferView":45,
			"componentType":5126,
			"count":2079,
			"type":"VEC3"
		},
		{
			"bufferView":46,
			"componentType":5126,
			"count":2079,
			"type":"VEC2"
		},
		{
			"bufferView":47,
			"componentType":5123,
			"count":3693,
			"type":"SCALAR"
		},
		{
			"bufferView":48,
			"componentType":5126,
			"count":3087,
			"max":[
				2.0229835510253906,
				7.647507667541504,
				2.049940347671509
			],
			"min":[
				-2.0437967777252197,
				1.536820650100708,
				-2.0460641384124756
			],
			"type":"VEC3"
		},
		{
			"bufferView":49,
			"componentType":5126,
			"count":3087,
			"type":"VEC3"
		},
		{
			"bufferView":50,
			"componentType":5126,
			"count":3087,
			"type":"VEC2"
		},
		{
			"bufferView":51,
			"componentType":5123,
			"count":6678,
			"type":"SCALAR"
		}
	],
	"bufferViews":[
		{
			"buffer":0,
			"byteLength":17232,
			"byteOffset":0,
			"target":34962
		},
		{
			"buffer":0,
			"byteLength":17232,
			"byteOffset":17232,
			"target":34962
		},
		{
			"buffer":0,
			"byteLength":11488,
			"byteOffset":34464,
			"target":34962
		},
		{
			"buffer":0,
			"byteLength":7074,
			"byteOffset":45952,
			"target":34963
		},
		{
			"buffer":0,
			"byteLength":708,
			"byteOffset":53028,
			"target":34962
		},
		{
			"buffer":0,
			"byteLength":708,
			"byteOffset":53736,
			"target":34962
		},
		{
			"buffer":0,
			"byteLength":472,
			"byteOffset":54444,
			"target":34962
		},
		{
			"buffer":0,
			"byteLength":198,
			"byteOffset":54916,
			"target":34963
		},
		{
			"buffer":0,
			"byteLength":384,
			"byteOffset":55116,
			"target":34962
		},
		{
			"buffer":0,
			"byteLength":384,
			"byteOffset":55500,
			"target":34962
		},
		{
			"buffer":0,
			"byteLength":256,
			"byteOffset":55884,
			"target":34962
		},
		{
			"buffer":0,
			"byteLength":120,
			"byteOffset":56140,
			"target":34963
		},
		{
			"buffer":0,
			"byteLength":720,
			"byteOffset":56260,
			"target":34962
		},
		{
			"buffer":0,
			"byteLength":720,
			"byteOffset":56980,
			"target":34962
		},
		{
			"buffer":0,
			"byteLength":480,
			"byteOffset":57700,
			"target":34962
		},
		{
			"buffer":0,
			"byteLength":204,
			"byteOffset":58180,
			"target":34963
		},
		{
			"buffer":0,
			"byteLength":46080,
			"byteOffset":58384,
			"target":34962
		},
		{
			"buffer":0,
			"byteLength":46080,
			"byteOffset":104464,
			"target":34962
		},
		{
			"buffer":0,
			"byteLength":30720,
			"byteOffset":150544,
			"target":34962
		},
		{
			"buffer":0,
			"byteLength":11520,
			"byteOffset":181264,
			"target":34963
		},
		{
			"buffer":0,
			"byteLength":6720,
			"byteOffset":192784,
			"target":34962
		},
		{
			"buffer":0,
			"byteLength":6720,
			"byteOffset":199504,
			"target":34962
		},
		{
			"buffer":0,
			"byteLength":4480,
			"byteOffset":206224,
			"target":34962
		},
		{
			"buffer":0,
			"byteLength":1680,
			"byteOffset":210704,
			"target":34963
		},
		{
			"buffer":0,
			"byteLength":1716,
			"byteOffset":212384,
			"target":34962
		},
		{
			"buffer":0,
			"byteLength":1716,
			"byteOffset":214100,
			"target":34962
		},
		{
			"buffer":0,
			"byteLength":1144,
			"byteOffset":215816,
			"target":34962
		},
		{
			"buffer":0,
			"byteLength":678,
			"byteOffset":216960,
			"target":34963
		},
		{
			"buffer":0,
			"byteLength":288,
			"byteOffset":217640,
			"target":34962
		},
		{
			"buffer":0,
			"byteLength":288,
			"byteOffset":217928,
			"target":34962
		},
		{
			"buffer":0,
			"byteLength":192,
			"byteOffset":218216,
			"target":34962
		},
		{
			"buffer":0,
			"byteLength":84,
			"byteOffset":218408,
			"target":34963
		},
		{
			"buffer":0,
			"byteLength":360,
			"byteOffset":218492,
			"target":34962
		},
		{
			"buffer":0,
			"byteLength":360,
			"byteOffset":218852,
			"target":34962
		},
		{
			"buffer":0,
			"byteLength":240,
			"byteOffset":219212,
			"target":34962
		},
		{
			"buffer":0,
			"byteLength":156,
			"byteOffset":219452,
			"target":34963
		},
		{
			"buffer":0,
			"byteLength":1920,
			"byteOffset":219608,
			"target":34962
		},
		{
			"buffer":0,
			"byteLength":1920,
			"byteOffset":221528,
			"target":34962
		},
		{
			"buffer":0,
			"byteLength":1280,
			"byteOffset":223448,
			"target":34962
		},
		{
			"buffer":0,
			"byteLength":720,
			"byteOffset":224728,
			"target":34963
		},
		{
			"buffer":0,
			"byteLength":1740,
			"byteOffset":225448,
			"target":34962
		},
		{
			"buffer":0,
			"byteLength":1740,
			"byteOffset":227188,
			"target":34962
		},
		{
			"buffer":0,
			"byteLength":1160,
			"byteOffset":228928,
			"target":34962
		},
		{
			"buffer":0,
			"byteLength":612,
			"byteOffset":230088,
			"target":34963
		},
		{
			"buffer":0,
			"byteLength":24948,
			"byteOffset":230700,
			"target":34962
		},
		{
			"buffer":0,
			"byteLength":24948,
			"byteOffset":255648,
			"target":34962
		},
		{
			"buffer":0,
			"byteLength":16632,
			"byteOffset":280596,
			"target":34962
		},
		{
			"buffer":0,
			"byteLength":7386,
			"byteOffset":297228,
			"target":34963
		},
		{
			"buffer":0,
			"byteLength":37044,
			"byteOffset":304616,
			"target":34962
		},
		{
			"buffer":0,
			"byteLength":37044,
			"byteOffset":341660,
			"target":34962
		},
		{
			"buffer":0,
			"byteLength":24696,
			"byteOffset":378704,
			"target":34962
		},
		{
			"buffer":0,
			"byteLength":13356,
			"byteOffset":403400,
			"target":34963
		}
	],
	"samplers":[
		{
			"magFilter":9729,
			"minFilter":9987
		}
	],
	"buffers":[
		{
			"byteLength":416756,
			"uri":"build2.bin"
		}
	]
}
