{
	"asset":{
		"generator":"Khronos glTF Blender I/O v5.1.18",
		"version":"2.0"
	},
	"scene":0,
	"scenes":[
		{
			"name":"Scene",
			"nodes":[
				0,
				1,
				2,
				3,
				4,
				5,
				6,
				7,
				8,
				9,
				10,
				11,
				12,
				13,
				14,
				15,
				16,
				17,
				18,
				19,
				20,
				21,
				22
			]
		}
	],
	"nodes":[
		{
			"mesh":0,
			"name":"Cube"
		},
		{
			"mesh":1,
			"name":"Cube.001",
			"translation":[
				0,
				-0.2500835359096527,
				0
			]
		},
		{
			"mesh":2,
			"name":"Cube.003",
			"translation":[
				0,
				-0.2500835359096527,
				0
			]
		},
		{
			"mesh":3,
			"name":"Cube.002",
			"translation":[
				0,
				-1.0526982545852661,
				0
			]
		},
		{
			"mesh":4,
			"name":"Cube.005",
			"translation":[
				0,
				-1.0526982545852661,
				0
			]
		},
		{
			"mesh":5,
			"name":"Cube.004",
			"translation":[
				0,
				-2.6916885375976562,
				0
			]
		},
		{
			"mesh":6,
			"name":"Cube.006",
			"translation":[
				0,
				-2.6916885375976562,
				0
			]
		},
		{
			"mesh":7,
			"name":"Cube.007",
			"translation":[
				0,
				-3.4943032264709473,
				0
			]
		},
		{
			"mesh":8,
			"name":"Cube.008",
			"translation":[
				0,
				-3.4943032264709473,
				0
			]
		},
		{
			"mesh":9,
			"name":"Cube.009",
			"translation":[
				0,
				-1.0526982545852661,
				-0.09871720522642136
			]
		},
		{
			"mesh":10,
			"name":"Cube.010",
			"translation":[
				0,
				-1.0526982545852661,
				0
			]
		},
		{
			"mesh":11,
			"name":"Cube.011"
		},
		{
			"mesh":12,
			"name":"Cube.012"
		},
		{
			"mesh":13,
			"name":"Cube.013",
			"translation":[
				-0.1342407613992691,
				0,
				-0.23108252882957458
			]
		},
		{
			"mesh":14,
			"name":"Cube.014",
			"translation":[
				-0.5742923617362976,
				0,
				-0.6769797801971436
			]
		},
		{
			"mesh":15,
			"name":"Cube.015"
		},
		{
			"mesh":16,
			"name":"Cube.016"
		},
		{
			"mesh":17,
			"name":"Cube.017"
		},
		{
			"mesh":18,
			"name":"Cube.018"
		},
		{
			"mesh":19,
			"name":"Cube.019"
		},
		{
			"mesh":20,
			"name":"Cube.020"
		},
		{
			"mesh":21,
			"name":"Cube.021"
		},
		{
			"mesh":22,
			"name":"Cube.022"
		}
	],
	"materials":[
		{
			"doubleSided":true,
			"name":"Material.002",
			"pbrMetallicRoughness":{
				"baseColorTexture":{
					"index":0
				},
				"metallicFactor":0.16153846681118011,
				"roughnessFactor":0.5076923370361328
			}
		},
		{
			"doubleSided":true,
			"name":"Material.004",
			"pbrMetallicRoughness":{
				"baseColorTexture":{
					"index":1
				},
				"metallicFactor":0,
				"roughnessFactor":0.5
			}
		},
		{
			"doubleSided":true,
			"emissiveFactor":[
				1,
				1,
				1
			],
			"emissiveTexture":{
				"index":2
			},
			"name":"Material.001",
			"pbrMetallicRoughness":{
				"baseColorFactor":[
					0,
					0,
					0,
					1
				]
			}
		},
		{
			"doubleSided":true,
			"emissiveFactor":[
				0.6732644438743591,
				0.5479767918586731,
				0.2632516920566559
			],
			"name":"Material",
			"pbrMetallicRoughness":{
				"baseColorFactor":[
					0,
					0,
					0,
					1
				]
			}
		},
		{
			"doubleSided":true,
			"name":"Material.003",
			"pbrMetallicRoughness":{
				"baseColorTexture":{
					"index":3
				},
				"metallicFactor":0,
				"roughnessFactor":0.5
			}
		},
		{
			"doubleSided":true,
			"name":"Material.005",
			"pbrMetallicRoughness":{
				"baseColorTexture":{
					"index":4
				},
				"metallicFactor":0,
				"roughnessFactor":0.5
			}
		}
	],
	"meshes":[
		{
			"name":"Cube",
			"primitives":[
				{
					"attributes":{
						"POSITION":0,
						"NORMAL":1,
						"TEXCOORD_0":2
					},
					"indices":3,
					"material":0
				}
			]
		},
		{
			"name":"Cube.005",
			"primitives":[
				{
					"attributes":{
						"POSITION":4,
						"NORMAL":5,
						"TEXCOORD_0":6
					},
					"indices":7,
					"material":1
				}
			]
		},
		{
			"name":"Cube.006",
			"primitives":[
				{
					"attributes":{
						"POSITION":8,
						"NORMAL":9,
						"TEXCOORD_0":10
					},
					"indices":11,
					"material":1
				}
			]
		},
		{
			"name":"Cube.004",
			"primitives":[
				{
					"attributes":{
						"POSITION":12,
						"NORMAL":13,
						"TEXCOORD_0":14
					},
					"indices":15,
					"material":1
				}
			]
		},
		{
			"name":"Cube.009",
			"primitives":[
				{
					"attributes":{
						"POSITION":16,
						"NORMAL":17,
						"TEXCOORD_0":18
					},
					"indices":19,
					"material":1
				}
			]
		},
		{
			"name":"Cube.010",
			"primitives":[
				{
					"attributes":{
						"POSITION":20,
						"NORMAL":21,
						"TEXCOORD_0":22
					},
					"indices":7,
					"material":1
				}
			]
		},
		{
			"name":"Cube.011",
			"primitives":[
				{
					"attributes":{
						"POSITION":23,
						"NORMAL":24,
						"TEXCOORD_0":25
					},
					"indices":11,
					"material":1
				}
			]
		},
		{
			"name":"Cube.012",
			"primitives":[
				{
					"attributes":{
						"POSITION":26,
						"NORMAL":27,
						"TEXCOORD_0":28
					},
					"indices":29,
					"material":1
				}
			]
		},
		{
			"name":"Cube.013",
			"primitives":[
				{
					"attributes":{
						"POSITION":30,
						"NORMAL":31,
						"TEXCOORD_0":32
					},
					"indices":19,
					"material":1
				}
			]
		},
		{
			"name":"Cube.016",
			"primitives":[
				{
					"attributes":{
						"POSITION":33,
						"NORMAL":34,
						"TEXCOORD_0":35
					},
					"indices":36,
					"material":1
				}
			]
		},
		{
			"name":"Cube.015",
			"primitives":[
				{
					"attributes":{
						"POSITION":37,
						"NORMAL":38,
						"TEXCOORD_0":39
					},
					"indices":40,
					"material":1
				}
			]
		},
		{
			"name":"Cube.017",
			"primitives":[
				{
					"attributes":{
						"POSITION":41,
						"NORMAL":42,
						"TEXCOORD_0":43
					},
					"indices":44,
					"material":2
				}
			]
		},
		{
			"name":"Cube.018",
			"primitives":[
				{
					"attributes":{
						"POSITION":45,
						"NORMAL":46,
						"TEXCOORD_0":47
					},
					"indices":48,
					"material":2
				}
			]
		},
		{
			"name":"Cube.024",
			"primitives":[
				{
					"attributes":{
						"POSITION":49,
						"NORMAL":50,
						"TEXCOORD_0":51
					},
					"indices":52
				}
			]
		},
		{
			"name":"Cube.025",
			"primitives":[
				{
					"attributes":{
						"POSITION":53,
						"NORMAL":54,
						"TEXCOORD_0":55
					},
					"indices":56,
					"material":2
				}
			]
		},
		{
			"name":"Cube.001",
			"primitives":[
				{
					"attributes":{
						"POSITION":57,
						"NORMAL":58,
						"TEXCOORD_0":59
					},
					"indices":60,
					"material":3
				}
			]
		},
		{
			"name":"Cube.002",
			"primitives":[
				{
					"attributes":{
						"POSITION":61,
						"NORMAL":62,
						"TEXCOORD_0":63
					},
					"indices":64,
					"material":4
				}
			]
		},
		{
			"name":"Cube.003",
			"primitives":[
				{
					"attributes":{
						"POSITION":65,
						"NORMAL":66,
						"TEXCOORD_0":67
					},
					"indices":68,
					"material":4
				}
			]
		},
		{
			"name":"Cube.007",
			"primitives":[
				{
					"attributes":{
						"POSITION":69,
						"NORMAL":70,
						"TEXCOORD_0":71
					},
					"indices":72,
					"material":4
				}
			]
		},
		{
			"name":"Cube.008",
			"primitives":[
				{
					"attributes":{
						"POSITION":73,
						"NORMAL":74,
						"TEXCOORD_0":75
					},
					"indices":76,
					"material":4
				}
			]
		},
		{
			"name":"Cube.014",
			"primitives":[
				{
					"attributes":{
						"POSITION":77,
						"NORMAL":78,
						"TEXCOORD_0":79
					},
					"indices":80,
					"material":5
				}
			]
		},
		{
			"name":"Cube.019",
			"primitives":[
				{
					"attributes":{
						"POSITION":81,
						"NORMAL":82,
						"TEXCOORD_0":83
					},
					"indices":84,
					"material":2
				}
			]
		},
		{
			"name":"Cube.020",
			"primitives":[
				{
					"attributes":{
						"POSITION":85,
						"NORMAL":86,
						"TEXCOORD_0":87
					},
					"indices":88,
					"material":5
				}
			]
		}
	],
	"textures":[
		{
			"sampler":0,
			"source":0
		},
		{
			"sampler":0,
			"source":1
		},
		{
			"sampler":0,
			"source":2
		},
		{
			"sampler":0,
			"source":3
		},
		{
			"sampler":0,
			"source":4
		}
	],
	"images":[
		{
			"mimeType":"image/jpeg",
			"name":"2053822-1926107767",
			"uri":"2053822-1926107767.jpg"
		},
		{
			"mimeType":"image/jpeg",
			"name":"14533902-fundo-com-ferrugem-textura-de-ferro-enferrujado-marrom-gratis-foto-1661586475",
			"uri":"14533902-fundo-com-ferrugem-textura-de-ferro-enferrujado-marrom-gratis-foto-1661586475.jpg"
		},
		{
			"mimeType":"image/jpeg",
			"name":"brick-texture-2106361449",
			"uri":"brick-texture-2106361449.jpg"
		},
		{
			"mimeType":"image/jpeg",
			"name":"139-stone-block-wall-pbr-texture-seamless-hr-1488102640",
			"uri":"139-stone-block-wall-pbr-texture-seamless-hr-1488102640.jpg"
		},
		{
			"mimeType":"image/jpeg",
			"name":"Seamless-Wood-Texture-5-2301751210",
			"uri":"Seamless-Wood-Texture-5-2301751210.jpg"
		}
	],
	"accessors":[
		{
			"bufferView":0,
			"componentType":5126,
			"count":1436,
			"max":[
				3.680976390838623,
				8.308926582336426,
				2.3364059925079346
			],
			"min":[
				-2.3364059925079346,
				0.0370173454284668,
				-2.3364059925079346
			],
			"type":"VEC3"
		},
		{
			"bufferView":1,
			"componentType":5126,
			"count":1436,
			"type":"VEC3"
		},
		{
			"bufferView":2,
			"componentType":5126,
			"count":1436,
			"type":"VEC2"
		},
		{
			"bufferView":3,
			"componentType":5123,
			"count":3537,
			"type":"SCALAR"
		},
		{
			"bufferView":4,
			"componentType":5126,
			"count":56,
			"max":[
				3.546643018722534,
				6.965211391448975,
				0.7319479584693909
			],
			"min":[
				2.485414981842041,
				6.88521146774292,
				-2.1158437728881836
			],
			"type":"VEC3"
		},
		{
			"bufferView":5,
			"componentType":5126,
			"count":56,
			"type":"VEC3"
		},
		{
			"bufferView":6,
			"componentType":5126,
			"count":56,
			"type":"VEC2"
		},
		{
			"bufferView":7,
			"componentType":5123,
			"count":96,
			"type":"SCALAR"
		},
		{
			"bufferView":8,
			"componentType":5126,
			"count":536,
			"max":[
				3.538358688354492,
				6.884550094604492,
				0.7119479179382324
			],
			"min":[
				2.513277053833008,
				6.162341594696045,
				-2.09584379196167
			],
			"type":"VEC3"
		},
		{
			"bufferView":9,
			"componentType":5126,
			"count":536,
			"type":"VEC3"
		},
		{
			"bufferView":10,
			"componentType":5126,
			"count":536,
			"type":"VEC2"
		},
		{
			"bufferView":11,
			"componentType":5123,
			"count":1020,
			"type":"SCALAR"
		},
		{
			"bufferView":12,
			"componentType":5126,
			"count":62,
			"max":[
				3.546643018722534,
				6.963542938232422,
				0.7319479584693909
			],
			"min":[
				2.485414981842041,
				6.84166955947876,
				-2.1158437728881836
			],
			"type":"VEC3"
		},
		{
			"bufferView":13,
			"componentType":5126,
			"count":62,
			"type":"VEC3"
		},
		{
			"bufferView":14,
			"componentType":5126,
			"count":62,
			"type":"VEC2"
		},
		{
			"bufferView":15,
			"componentType":5123,
			"count":102,
			"type":"SCALAR"
		},
		{
			"bufferView":16,
			"componentType":5126,
			"count":96,
			"max":[
				3.5318233966827393,
				6.926203727722168,
				0.6619899272918701
			],
			"min":[
				2.4893929958343506,
				6.886203765869141,
				-2.0458860397338867
			],
			"type":"VEC3"
		},
		{
			"bufferView":17,
			"componentType":5126,
			"count":96,
			"type":"VEC3"
		},
		{
			"bufferView":18,
			"componentType":5126,
			"count":96,
			"type":"VEC2"
		},
		{
			"bufferView":19,
			"componentType":5123,
			"count":144,
			"type":"SCALAR"
		},
		{
			"bufferView":20,
			"componentType":5126,
			"count":56,
			"max":[
				3.546643018722534,
				6.965211391448975,
				0.7319479584693909
			],
			"min":[
				2.485414981842041,
				6.88521146774292,
				-2.1158437728881836
			],
			"type":"VEC3"
		},
		{
			"bufferView":21,
			"componentType":5126,
			"count":56,
			"type":"VEC3"
		},
		{
			"bufferView":22,
			"componentType":5126,
			"count":56,
			"type":"VEC2"
		},
		{
			"bufferView":23,
			"componentType":5126,
			"count":536,
			"max":[
				3.538358688354492,
				6.884550094604492,
				0.7119479179382324
			],
			"min":[
				2.513277053833008,
				6.162341594696045,
				-2.09584379196167
			],
			"type":"VEC3"
		},
		{
			"bufferView":24,
			"componentType":5126,
			"count":536,
			"type":"VEC3"
		},
		{
			"bufferView":25,
			"componentType":5126,
			"count":536,
			"type":"VEC2"
		},
		{
			"bufferView":26,
			"componentType":5126,
			"count":60,
			"max":[
				3.546643018722534,
				6.965211391448975,
				0.7319479584693909
			],
			"min":[
				2.485414981842041,
				6.88521146774292,
				-2.1158437728881836
			],
			"type":"VEC3"
		},
		{
			"bufferView":27,
			"componentType":5126,
			"count":60,
			"type":"VEC3"
		},
		{
			"bufferView":28,
			"componentType":5126,
			"count":60,
			"type":"VEC2"
		},
		{
			"bufferView":29,
			"componentType":5123,
			"count":108,
			"type":"SCALAR"
		},
		{
			"bufferView":30,
			"componentType":5126,
			"count":96,
			"max":[
				3.5318233966827393,
				6.926203727722168,
				0.6619899272918701
			],
			"min":[
				2.4893929958343506,
				6.886203765869141,
				-2.0458860397338867
			],
			"type":"VEC3"
		},
		{
			"bufferView":31,
			"componentType":5126,
			"count":96,
			"type":"VEC3"
		},
		{
			"bufferView":32,
			"componentType":5126,
			"count":96,
			"type":"VEC2"
		},
		{
			"bufferView":33,
			"componentType":5126,
			"count":32,
			"max":[
				3.2962467670440674,
				6.887122631072998,
				0.39520490169525146
			],
			"min":[
				2.6792428493499756,
				4.485474586486816,
				-1.4331138134002686
			],
			"type":"VEC3"
		},
		{
			"bufferView":34,
			"componentType":5126,
			"count":32,
			"type":"VEC3"
		},
		{
			"bufferView":35,
			"componentType":5126,
			"count":32,
			"type":"VEC2"
		},
		{
			"bufferView":36,
			"componentType":5123,
			"count":48,
			"type":"SCALAR"
		},
		{
			"bufferView":37,
			"componentType":5126,
			"count":280,
			"max":[
				3.266246795654297,
				6.610815048217773,
				0.06097547709941864
			],
			"min":[
				2.709242820739746,
				4.628183841705322,
				-1.4672727584838867
			],
			"type":"VEC3"
		},
		{
			"bufferView":38,
			"componentType":5126,
			"count":280,
			"type":"VEC3"
		},
		{
			"bufferView":39,
			"componentType":5126,
			"count":280,
			"type":"VEC2"
		},
		{
			"bufferView":40,
			"componentType":5123,
			"count":480,
			"type":"SCALAR"
		},
		{
			"bufferView":41,
			"componentType":5126,
			"count":59,
			"max":[
				2.1973769664764404,
				2.9590182304382324,
				1.9139777421951294
			],
			"min":[
				1.7884025573730469,
				1.244248390197754,
				0.8538140058517456
			],
			"type":"VEC3"
		},
		{
			"bufferView":42,
			"componentType":5126,
			"count":59,
			"type":"VEC3"
		},
		{
			"bufferView":43,
			"componentType":5126,
			"count":59,
			"type":"VEC2"
		},
		{
			"bufferView":44,
			"componentType":5123,
			"count":99,
			"type":"SCALAR"
		},
		{
			"bufferView":45,
			"componentType":5126,
			"count":32,
			"max":[
				2.240288734436035,
				2.9831528663635254,
				1.951587438583374
			],
			"min":[
				1.997451901435852,
				2.8116471767425537,
				0.818760097026825
			],
			"type":"VEC3"
		},
		{
			"bufferView":46,
			"componentType":5126,
			"count":32,
			"type":"VEC3"
		},
		{
			"bufferView":47,
			"componentType":5126,
			"count":32,
			"type":"VEC2"
		},
		{
			"bufferView":48,
			"componentType":5123,
			"count":60,
			"type":"SCALAR"
		},
		{
			"bufferView":49,
			"componentType":5126,
			"count":60,
			"max":[
				2.039461374282837,
				2.0567657947540283,
				1.413895845413208
			],
			"min":[
				1.9349212646484375,
				1.9967658519744873,
				1.353895902633667
			],
			"type":"VEC3"
		},
		{
			"bufferView":50,
			"componentType":5126,
			"count":60,
			"type":"VEC3"
		},
		{
			"bufferView":51,
			"componentType":5126,
			"count":60,
			"type":"VEC2"
		},
		{
			"bufferView":52,
			"componentType":5123,
			"count":102,
			"type":"SCALAR"
		},
		{
			"bufferView":53,
			"componentType":5126,
			"count":3840,
			"max":[
				2.6897666454315186,
				8.122955322265625,
				2.796586275100708
			],
			"min":[
				-1.535301923751831,
				1.1123971939086914,
				-1.4393730163574219
			],
			"type":"VEC3"
		},
		{
			"bufferView":54,
			"componentType":5126,
			"count":3840,
			"type":"VEC3"
		},
		{
			"bufferView":55,
			"componentType":5126,
			"count":3840,
			"type":"VEC2"
		},
		{
			"bufferView":56,
			"componentType":5123,
			"count":5760,
			"type":"SCALAR"
		},
		{
			"bufferView":57,
			"componentType":5126,
			"count":560,
			"max":[
				1.9949175119400024,
				7.612356185913086,
				2.021874189376831
			],
			"min":[
				-2.015730619430542,
				1.5787665843963623,
				-2.017997980117798
			],
			"type":"VEC3"
		},
		{
			"bufferView":58,
			"componentType":5126,
			"count":560,
			"type":"VEC3"
		},
		{
			"bufferView":59,
			"componentType":5126,
			"count":560,
			"type":"VEC2"
		},
		{
			"bufferView":60,
			"componentType":5123,
			"count":840,
			"type":"SCALAR"
		},
		{
			"bufferView":61,
			"componentType":5126,
			"count":143,
			"max":[
				3.680976390838623,
				1.240346908569336,
				2.2946438789367676
			],
			"min":[
				-2.2946438789367676,
				0.0370173454284668,
				-2.2946438789367676
			],
			"type":"VEC3"
		},
		{
			"bufferView":62,
			"componentType":5126,
			"count":143,
			"type":"VEC3"
		},
		{
			"bufferView":63,
			"componentType":5126,
			"count":143,
			"type":"VEC2"
		},
		{
			"bufferView":64,
			"componentType":5123,
			"count":339,
			"type":"SCALAR"
		},
		{
			"bufferView":65,
			"componentType":5126,
			"count":24,
			"max":[
				3.680976390838623,
				1.240346908569336,
				2.0758438110351562
			],
			"min":[
				2.0758438110351562,
				0.29381269216537476,
				0.6919479370117188
			],
			"type":"VEC3"
		},
		{
			"bufferView":66,
			"componentType":5126,
			"count":24,
			"type":"VEC3"
		},
		{
			"bufferView":67,
			"componentType":5126,
			"count":24,
			"type":"VEC2"
		},
		{
			"bufferView":68,
			"componentType":5123,
			"count":42,
			"type":"SCALAR"
		},
		{
			"bufferView":69,
			"componentType":5126,
			"count":30,
			"max":[
				3.680976390838623,
				1.240346908569336,
				2.0758438110351562
			],
			"min":[
				2.0758438110351562,
				0.0370173454284668,
				0.6919479370117188
			],
			"type":"VEC3"
		},
		{
			"bufferView":70,
			"componentType":5126,
			"count":30,
			"type":"VEC3"
		},
		{
			"bufferView":71,
			"componentType":5126,
			"count":30,
			"type":"VEC2"
		},
		{
			"bufferView":72,
			"componentType":5123,
			"count":78,
			"type":"SCALAR"
		},
		{
			"bufferView":73,
			"componentType":5126,
			"count":160,
			"max":[
				2.3364059925079346,
				8.308926582336426,
				2.3364059925079346
			],
			"min":[
				-2.3364059925079346,
				3.0952839851379395,
				-2.3364059925079346
			],
			"type":"VEC3"
		},
		{
			"bufferView":74,
			"componentType":5126,
			"count":160,
			"type":"VEC3"
		},
		{
			"bufferView":75,
			"componentType":5126,
			"count":160,
			"type":"VEC2"
		},
		{
			"bufferView":76,
			"componentType":5123,
			"count":360,
			"type":"SCALAR"
		},
		{
			"bufferView":77,
			"componentType":5126,
			"count":145,
			"max":[
				2.0758438110351562,
				2.8179829120635986,
				1.7741987705230713
			],
			"min":[
				1.8179559707641602,
				1.244248390197754,
				0.9946722388267517
			],
			"type":"VEC3"
		},
		{
			"bufferView":78,
			"componentType":5126,
			"count":145,
			"type":"VEC3"
		},
		{
			"bufferView":79,
			"componentType":5126,
			"count":145,
			"type":"VEC2"
		},
		{
			"bufferView":80,
			"componentType":5123,
			"count":306,
			"type":"SCALAR"
		},
		{
			"bufferView":81,
			"componentType":5126,
			"count":2079,
			"max":[
				2.1846606731414795,
				7.810093879699707,
				2.2116172313690186
			],
			"min":[
				-2.2054736614227295,
				1.445674180984497,
				-2.2077410221099854
			],
			"type":"VEC3"
		},
		{
			"bufferView":82,
			"componentType":5126,
			"count":2079,
			"type":"VEC3"
		},
		{
			"bufferView":83,
			"componentType":5126,
			"count":2079,
			"type":"VEC2"
		},
		{
			"bufferView":84,
			"componentType":5123,
			"count":3693,
			"type":"SCALAR"
		},
		{
			"bufferView":85,
			"componentType":5126,
			"count":3087,
			"max":[
				2.0229835510253906,
				7.647507667541504,
				2.049940347671509
			],
			"min":[
				-2.0437967777252197,
				1.536820650100708,
				-2.0460641384124756
			],
			"type":"VEC3"
		},
		{
			"bufferView":86,
			"componentType":5126,
			"count":3087,
			"type":"VEC3"
		},
		{
			"bufferView":87,
			"componentType":5126,
			"count":3087,
			"type":"VEC2"
		},
		{
			"bufferView":88,
			"componentType":5123,
			"count":6678,
			"type":"SCALAR"
		}
	],
	"bufferViews":[
		{
			"buffer":0,
			"byteLength":17232,
			"byteOffset":0,
			"target":34962
		},
		{
			"buffer":0,
			"byteLength":17232,
			"byteOffset":17232,
			"target":34962
		},
		{
			"buffer":0,
			"byteLength":11488,
			"byteOffset":34464,
			"target":34962
		},
		{
			"buffer":0,
			"byteLength":7074,
			"byteOffset":45952,
			"target":34963
		},
		{
			"buffer":0,
			"byteLength":672,
			"byteOffset":53028,
			"target":34962
		},
		{
			"buffer":0,
			"byteLength":672,
			"byteOffset":53700,
			"target":34962
		},
		{
			"buffer":0,
			"byteLength":448,
			"byteOffset":54372,
			"target":34962
		},
		{
			"buffer":0,
			"byteLength":192,
			"byteOffset":54820,
			"target":34963
		},
		{
			"buffer":0,
			"byteLength":6432,
			"byteOffset":55012,
			"target":34962
		},
		{
			"buffer":0,
			"byteLength":6432,
			"byteOffset":61444,
			"target":34962
		},
		{
			"buffer":0,
			"byteLength":4288,
			"byteOffset":67876,
			"target":34962
		},
		{
			"buffer":0,
			"byteLength":2040,
			"byteOffset":72164,
			"target":34963
		},
		{
			"buffer":0,
			"byteLength":744,
			"byteOffset":74204,
			"target":34962
		},
		{
			"buffer":0,
			"byteLength":744,
			"byteOffset":74948,
			"target":34962
		},
		{
			"buffer":0,
			"byteLength":496,
			"byteOffset":75692,
			"target":34962
		},
		{
			"buffer":0,
			"byteLength":204,
			"byteOffset":76188,
			"target":34963
		},
		{
			"buffer":0,
			"byteLength":1152,
			"byteOffset":76392,
			"target":34962
		},
		{
			"buffer":0,
			"byteLength":1152,
			"byteOffset":77544,
			"target":34962
		},
		{
			"buffer":0,
			"byteLength":768,
			"byteOffset":78696,
			"target":34962
		},
		{
			"buffer":0,
			"byteLength":288,
			"byteOffset":79464,
			"target":34963
		},
		{
			"buffer":0,
			"byteLength":672,
			"byteOffset":79752,
			"target":34962
		},
		{
			"buffer":0,
			"byteLength":672,
			"byteOffset":80424,
			"target":34962
		},
		{
			"buffer":0,
			"byteLength":448,
			"byteOffset":81096,
			"target":34962
		},
		{
			"buffer":0,
			"byteLength":6432,
			"byteOffset":81544,
			"target":34962
		},
		{
			"buffer":0,
			"byteLength":6432,
			"byteOffset":87976,
			"target":34962
		},
		{
			"buffer":0,
			"byteLength":4288,
			"byteOffset":94408,
			"target":34962
		},
		{
			"buffer":0,
			"byteLength":720,
			"byteOffset":98696,
			"target":34962
		},
		{
			"buffer":0,
			"byteLength":720,
			"byteOffset":99416,
			"target":34962
		},
		{
			"buffer":0,
			"byteLength":480,
			"byteOffset":100136,
			"target":34962
		},
		{
			"buffer":0,
			"byteLength":216,
			"byteOffset":100616,
			"target":34963
		},
		{
			"buffer":0,
			"byteLength":1152,
			"byteOffset":100832,
			"target":34962
		},
		{
			"buffer":0,
			"byteLength":1152,
			"byteOffset":101984,
			"target":34962
		},
		{
			"buffer":0,
			"byteLength":768,
			"byteOffset":103136,
			"target":34962
		},
		{
			"buffer":0,
			"byteLength":384,
			"byteOffset":103904,
			"target":34962
		},
		{
			"buffer":0,
			"byteLength":384,
			"byteOffset":104288,
			"target":34962
		},
		{
			"buffer":0,
			"byteLength":256,
			"byteOffset":104672,
			"target":34962
		},
		{
			"buffer":0,
			"byteLength":96,
			"byteOffset":104928,
			"target":34963
		},
		{
			"buffer":0,
			"byteLength":3360,
			"byteOffset":105024,
			"target":34962
		},
		{
			"buffer":0,
			"byteLength":3360,
			"byteOffset":108384,
			"target":34962
		},
		{
			"buffer":0,
			"byteLength":2240,
			"byteOffset":111744,
			"target":34962
		},
		{
			"buffer":0,
			"byteLength":960,
			"byteOffset":113984,
			"target":34963
		},
		{
			"buffer":0,
			"byteLength":708,
			"byteOffset":114944,
			"target":34962
		},
		{
			"buffer":0,
			"byteLength":708,
			"byteOffset":115652,
			"target":34962
		},
		{
			"buffer":0,
			"byteLength":472,
			"byteOffset":116360,
			"target":34962
		},
		{
			"buffer":0,
			"byteLength":198,
			"byteOffset":116832,
			"target":34963
		},
		{
			"buffer":0,
			"byteLength":384,
			"byteOffset":117032,
			"target":34962
		},
		{
			"buffer":0,
			"byteLength":384,
			"byteOffset":117416,
			"target":34962
		},
		{
			"buffer":0,
			"byteLength":256,
			"byteOffset":117800,
			"target":34962
		},
		{
			"buffer":0,
			"byteLength":120,
			"byteOffset":118056,
			"target":34963
		},
		{
			"buffer":0,
			"byteLength":720,
			"byteOffset":118176,
			"target":34962
		},
		{
			"buffer":0,
			"byteLength":720,
			"byteOffset":118896,
			"target":34962
		},
		{
			"buffer":0,
			"byteLength":480,
			"byteOffset":119616,
			"target":34962
		},
		{
			"buffer":0,
			"byteLength":204,
			"byteOffset":120096,
			"target":34963
		},
		{
			"buffer":0,
			"byteLength":46080,
			"byteOffset":120300,
			"target":34962
		},
		{
			"buffer":0,
			"byteLength":46080,
			"byteOffset":166380,
			"target":34962
		},
		{
			"buffer":0,
			"byteLength":30720,
			"byteOffset":212460,
			"target":34962
		},
		{
			"buffer":0,
			"byteLength":11520,
			"byteOffset":243180,
			"target":34963
		},
		{
			"buffer":0,
			"byteLength":6720,
			"byteOffset":254700,
			"target":34962
		},
		{
			"buffer":0,
			"byteLength":6720,
			"byteOffset":261420,
			"target":34962
		},
		{
			"buffer":0,
			"byteLength":4480,
			"byteOffset":268140,
			"target":34962
		},
		{
			"buffer":0,
			"byteLength":1680,
			"byteOffset":272620,
			"target":34963
		},
		{
			"buffer":0,
			"byteLength":1716,
			"byteOffset":274300,
			"target":34962
		},
		{
			"buffer":0,
			"byteLength":1716,
			"byteOffset":276016,
			"target":34962
		},
		{
			"buffer":0,
			"byteLength":1144,
			"byteOffset":277732,
			"target":34962
		},
		{
			"buffer":0,
			"byteLength":678,
			"byteOffset":278876,
			"target":34963
		},
		{
			"buffer":0,
			"byteLength":288,
			"byteOffset":279556,
			"target":34962
		},
		{
			"buffer":0,
			"byteLength":288,
			"byteOffset":279844,
			"target":34962
		},
		{
			"buffer":0,
			"byteLength":192,
			"byteOffset":280132,
			"target":34962
		},
		{
			"buffer":0,
			"byteLength":84,
			"byteOffset":280324,
			"target":34963
		},
		{
			"buffer":0,
			"byteLength":360,
			"byteOffset":280408,
			"target":34962
		},
		{
			"buffer":0,
			"byteLength":360,
			"byteOffset":280768,
			"target":34962
		},
		{
			"buffer":0,
			"byteLength":240,
			"byteOffset":281128,
			"target":34962
		},
		{
			"buffer":0,
			"byteLength":156,
			"byteOffset":281368,
			"target":34963
		},
		{
			"buffer":0,
			"byteLength":1920,
			"byteOffset":281524,
			"target":34962
		},
		{
			"buffer":0,
			"byteLength":1920,
			"byteOffset":283444,
			"target":34962
		},
		{
			"buffer":0,
			"byteLength":1280,
			"byteOffset":285364,
			"target":34962
		},
		{
			"buffer":0,
			"byteLength":720,
			"byteOffset":286644,
			"target":34963
		},
		{
			"buffer":0,
			"byteLength":1740,
			"byteOffset":287364,
			"target":34962
		},
		{
			"buffer":0,
			"byteLength":1740,
			"byteOffset":289104,
			"target":34962
		},
		{
			"buffer":0,
			"byteLength":1160,
			"byteOffset":290844,
			"target":34962
		},
		{
			"buffer":0,
			"byteLength":612,
			"byteOffset":292004,
			"target":34963
		},
		{
			"buffer":0,
			"byteLength":24948,
			"byteOffset":292616,
			"target":34962
		},
		{
			"buffer":0,
			"byteLength":24948,
			"byteOffset":317564,
			"target":34962
		},
		{
			"buffer":0,
			"byteLength":16632,
			"byteOffset":342512,
			"target":34962
		},
		{
			"buffer":0,
			"byteLength":7386,
			"byteOffset":359144,
			"target":34963
		},
		{
			"buffer":0,
			"byteLength":37044,
			"byteOffset":366532,
			"target":34962
		},
		{
			"buffer":0,
			"byteLength":37044,
			"byteOffset":403576,
			"target":34962
		},
		{
			"buffer":0,
			"byteLength":24696,
			"byteOffset":440620,
			"target":34962
		},
		{
			"buffer":0,
			"byteLength":13356,
			"byteOffset":465316,
			"target":34963
		}
	],
	"samplers":[
		{
			"magFilter":9729,
			"minFilter":9987
		}
	],
	"buffers":[
		{
			"byteLength":478672,
			"uri":"build.bin"
		}
	]
}
