{
	"asset":{
		"generator":"Khronos glTF Blender I/O v5.1.18",
		"version":"2.0"
	},
	"scene":0,
	"scenes":[
		{
			"name":"Scene",
			"nodes":[
				0,
				1,
				2,
				3,
				4,
				5,
				6
			]
		}
	],
	"nodes":[
		{
			"mesh":0,
			"name":"Cube",
			"translation":[
				-0.40752100944519043,
				-0.5855443477630615,
				0.8712467551231384
			]
		},
		{
			"name":"Empty.001",
			"rotation":[
				0,
				0.7071068286895752,
				0,
				0.7071068286895752
			],
			"translation":[
				0.07999999821186066,
				-3.1263952255249023,
				0
			]
		},
		{
			"mesh":1,
			"name":"FW",
			"translation":[
				-0.40752100944519043,
				-0.5855443477630615,
				0.8712467551231384
			]
		},
		{
			"mesh":2,
			"name":"BW",
			"translation":[
				-0.40752100944519043,
				-0.5855443477630615,
				0.8712467551231384
			]
		},
		{
			"mesh":3,
			"name":"Farol_F",
			"translation":[
				-0.40752100944519043,
				-0.5855443477630615,
				0.8712467551231384
			]
		},
		{
			"mesh":4,
			"name":"Farol_B",
			"translation":[
				-0.40752100944519043,
				-0.5855443477630615,
				0.8712467551231384
			]
		},
		{
			"mesh":5,
			"name":"mirrors",
			"translation":[
				-0.40752100944519043,
				-0.5855443477630615,
				0.8712467551231384
			]
		}
	],
	"materials":[
		{
			"doubleSided":true,
			"name":"Material",
			"pbrMetallicRoughness":{
				"baseColorFactor":[
					0.3504553735256195,
					0.34575504064559937,
					0.07329818606376648,
					1
				],
				"metallicFactor":0.615384578704834,
				"roughnessFactor":0.20769231021404266
			}
		},
		{
			"doubleSided":true,
			"name":"Material.004",
			"pbrMetallicRoughness":{
				"baseColorFactor":[
					0.005238639190793037,
					0.005238639190793037,
					0.005238639190793037,
					1
				],
				"metallicFactor":0,
				"roughnessFactor":0.7538461685180664
			}
		},
		{
			"doubleSided":true,
			"name":"Material.003",
			"pbrMetallicRoughness":{
				"baseColorFactor":[
					0.0024487420450896025,
					0.0024487420450896025,
					0.0024487420450896025,
					1
				],
				"metallicFactor":0,
				"roughnessFactor":0.7692307829856873
			}
		},
		{
			"doubleSided":true,
			"emissiveFactor":[
				1,
				0.8585822582244873,
				0.3517233431339264
			],
			"name":"Material.002",
			"pbrMetallicRoughness":{
				"baseColorFactor":[
					0,
					0,
					0,
					1
				]
			}
		},
		{
			"doubleSided":true,
			"emissiveFactor":[
				0.25818297266960144,
				0.012286488898098469,
				0.008568127639591694
			],
			"name":"Material.005",
			"pbrMetallicRoughness":{
				"baseColorFactor":[
					0,
					0,
					0,
					1
				]
			}
		},
		{
			"doubleSided":true,
			"name":"Material.001",
			"pbrMetallicRoughness":{
				"baseColorFactor":[
					0.01722501963376999,
					0.01722501963376999,
					0.01722501963376999,
					1
				],
				"metallicFactor":0,
				"roughnessFactor":0.09999999403953552
			}
		}
	],
	"meshes":[
		{
			"name":"Cube.004",
			"primitives":[
				{
					"attributes":{
						"POSITION":0,
						"NORMAL":1,
						"TEXCOORD_0":2
					},
					"indices":3,
					"material":0
				}
			]
		},
		{
			"name":"Cube.001",
			"primitives":[
				{
					"attributes":{
						"POSITION":4,
						"NORMAL":5,
						"TEXCOORD_0":6
					},
					"indices":7,
					"material":1
				}
			]
		},
		{
			"name":"Cube.002",
			"primitives":[
				{
					"attributes":{
						"POSITION":8,
						"NORMAL":9,
						"TEXCOORD_0":10
					},
					"indices":7,
					"material":2
				}
			]
		},
		{
			"name":"Cube.003",
			"primitives":[
				{
					"attributes":{
						"POSITION":11,
						"NORMAL":12,
						"TEXCOORD_0":13
					},
					"indices":14,
					"material":3
				}
			]
		},
		{
			"name":"Cube.005",
			"primitives":[
				{
					"attributes":{
						"POSITION":15,
						"NORMAL":16,
						"TEXCOORD_0":17
					},
					"indices":18,
					"material":4
				}
			]
		},
		{
			"name":"Cube.006",
			"primitives":[
				{
					"attributes":{
						"POSITION":19,
						"NORMAL":20,
						"TEXCOORD_0":21
					},
					"indices":22,
					"material":5
				}
			]
		}
	],
	"accessors":[
		{
			"bufferView":0,
			"componentType":5126,
			"count":200607,
			"max":[
				0.7658865451812744,
				0.31874382495880127,
				0.8051481246948242
			],
			"min":[
				-0.7658866047859192,
				-0.525048553943634,
				-2.5816493034362793
			],
			"type":"VEC3"
		},
		{
			"bufferView":1,
			"componentType":5126,
			"count":200607,
			"type":"VEC3"
		},
		{
			"bufferView":2,
			"componentType":5126,
			"count":200607,
			"type":"VEC2"
		},
		{
			"bufferView":3,
			"componentType":5125,
			"count":1170816,
			"type":"SCALAR"
		},
		{
			"bufferView":4,
			"componentType":5126,
			"count":392,
			"max":[
				0.7601572275161743,
				-0.05609515681862831,
				0.34696561098098755
			],
			"min":[
				-0.7601572275161743,
				-0.5653199553489685,
				-0.162259042263031
			],
			"type":"VEC3"
		},
		{
			"bufferView":5,
			"componentType":5126,
			"count":392,
			"type":"VEC3"
		},
		{
			"bufferView":6,
			"componentType":5126,
			"count":392,
			"type":"VEC2"
		},
		{
			"bufferView":7,
			"componentType":5123,
			"count":1512,
			"type":"SCALAR"
		},
		{
			"bufferView":8,
			"componentType":5126,
			"count":392,
			"max":[
				0.7665476202964783,
				-0.018066346645355225,
				-1.5914573669433594
			],
			"min":[
				-0.7665476202964783,
				-0.5614179968833923,
				-2.1348090171813965
			],
			"type":"VEC3"
		},
		{
			"bufferView":9,
			"componentType":5126,
			"count":392,
			"type":"VEC3"
		},
		{
			"bufferView":10,
			"componentType":5126,
			"count":392,
			"type":"VEC2"
		},
		{
			"bufferView":11,
			"componentType":5126,
			"count":38,
			"max":[
				0.5580633282661438,
				-0.05741965398192406,
				0.6186211705207825
			],
			"min":[
				-0.5580633282661438,
				-0.16548724472522736,
				0.2915457785129547
			],
			"type":"VEC3"
		},
		{
			"bufferView":12,
			"componentType":5126,
			"count":38,
			"type":"VEC3"
		},
		{
			"bufferView":13,
			"componentType":5126,
			"count":38,
			"type":"VEC2"
		},
		{
			"bufferView":14,
			"componentType":5123,
			"count":126,
			"type":"SCALAR"
		},
		{
			"bufferView":15,
			"componentType":5126,
			"count":272,
			"max":[
				0.6043963432312012,
				0.06639701873064041,
				-2.4693546295166016
			],
			"min":[
				-0.6043963432312012,
				-0.07954823225736618,
				-2.510158061981201
			],
			"type":"VEC3"
		},
		{
			"bufferView":16,
			"componentType":5126,
			"count":272,
			"type":"VEC3"
		},
		{
			"bufferView":17,
			"componentType":5126,
			"count":272,
			"type":"VEC2"
		},
		{
			"bufferView":18,
			"componentType":5123,
			"count":480,
			"type":"SCALAR"
		},
		{
			"bufferView":19,
			"componentType":5126,
			"count":7570,
			"max":[
				0.5796809196472168,
				0.28494375944137573,
				-0.06774729490280151
			],
			"min":[
				-0.5796809196472168,
				-0.01698535494506359,
				-1.913970708847046
			],
			"type":"VEC3"
		},
		{
			"bufferView":20,
			"componentType":5126,
			"count":7570,
			"type":"VEC3"
		},
		{
			"bufferView":21,
			"componentType":5126,
			"count":7570,
			"type":"VEC2"
		},
		{
			"bufferView":22,
			"componentType":5123,
			"count":42960,
			"type":"SCALAR"
		}
	],
	"bufferViews":[
		{
			"buffer":0,
			"byteLength":2407284,
			"byteOffset":0,
			"target":34962
		},
		{
			"buffer":0,
			"byteLength":2407284,
			"byteOffset":2407284,
			"target":34962
		},
		{
			"buffer":0,
			"byteLength":1604856,
			"byteOffset":4814568,
			"target":34962
		},
		{
			"buffer":0,
			"byteLength":4683264,
			"byteOffset":6419424,
			"target":34963
		},
		{
			"buffer":0,
			"byteLength":4704,
			"byteOffset":11102688,
			"target":34962
		},
		{
			"buffer":0,
			"byteLength":4704,
			"byteOffset":11107392,
			"target":34962
		},
		{
			"buffer":0,
			"byteLength":3136,
			"byteOffset":11112096,
			"target":34962
		},
		{
			"buffer":0,
			"byteLength":3024,
			"byteOffset":11115232,
			"target":34963
		},
		{
			"buffer":0,
			"byteLength":4704,
			"byteOffset":11118256,
			"target":34962
		},
		{
			"buffer":0,
			"byteLength":4704,
			"byteOffset":11122960,
			"target":34962
		},
		{
			"buffer":0,
			"byteLength":3136,
			"byteOffset":11127664,
			"target":34962
		},
		{
			"buffer":0,
			"byteLength":456,
			"byteOffset":11130800,
			"target":34962
		},
		{
			"buffer":0,
			"byteLength":456,
			"byteOffset":11131256,
			"target":34962
		},
		{
			"buffer":0,
			"byteLength":304,
			"byteOffset":11131712,
			"target":34962
		},
		{
			"buffer":0,
			"byteLength":252,
			"byteOffset":11132016,
			"target":34963
		},
		{
			"buffer":0,
			"byteLength":3264,
			"byteOffset":11132268,
			"target":34962
		},
		{
			"buffer":0,
			"byteLength":3264,
			"byteOffset":11135532,
			"target":34962
		},
		{
			"buffer":0,
			"byteLength":2176,
			"byteOffset":11138796,
			"target":34962
		},
		{
			"buffer":0,
			"byteLength":960,
			"byteOffset":11140972,
			"target":34963
		},
		{
			"buffer":0,
			"byteLength":90840,
			"byteOffset":11141932,
			"target":34962
		},
		{
			"buffer":0,
			"byteLength":90840,
			"byteOffset":11232772,
			"target":34962
		},
		{
			"buffer":0,
			"byteLength":60560,
			"byteOffset":11323612,
			"target":34962
		},
		{
			"buffer":0,
			"byteLength":85920,
			"byteOffset":11384172,
			"target":34963
		}
	],
	"buffers":[
		{
			"byteLength":11470092,
			"uri":"car1.bin"
		}
	]
}
