{
	"asset":{
		"generator":"Khronos glTF Blender I/O v5.1.18",
		"version":"2.0"
	},
	"scene":0,
	"scenes":[
		{
			"name":"Scene",
			"nodes":[
				0,
				1
			]
		}
	],
	"nodes":[
		{
			"mesh":0,
			"name":"Cylinder.004",
			"translation":[
				4.139895915985107,
				1,
				7.414247512817383
			]
		},
		{
			"mesh":1,
			"name":"Cylinder.005",
			"translation":[
				4.139895915985107,
				1,
				7.414247512817383
			]
		}
	],
	"materials":[
		{
			"doubleSided":true,
			"name":"Material.005",
			"pbrMetallicRoughness":{
				"baseColorTexture":{
					"index":0
				},
				"metallicFactor":0,
				"roughnessFactor":0.5
			}
		},
		{
			"doubleSided":true,
			"name":"Material.003",
			"pbrMetallicRoughness":{
				"baseColorTexture":{
					"index":1
				},
				"metallicFactor":0,
				"roughnessFactor":0.5
			}
		}
	],
	"meshes":[
		{
			"name":"Cylinder.004",
			"primitives":[
				{
					"attributes":{
						"POSITION":0,
						"NORMAL":1,
						"TEXCOORD_0":2
					},
					"indices":3,
					"material":0
				}
			]
		},
		{
			"name":"Cylinder.005",
			"primitives":[
				{
					"attributes":{
						"POSITION":4,
						"NORMAL":5,
						"TEXCOORD_0":6
					},
					"indices":7,
					"material":1
				}
			]
		}
	],
	"textures":[
		{
			"sampler":0,
			"source":0
		},
		{
			"sampler":0,
			"source":1
		}
	],
	"images":[
		{
			"mimeType":"image/jpeg",
			"name":"silver-colored-metal-texture_1079150-137722-3563375486",
			"uri":"silver-colored-metal-texture_1079150-137722-3563375486.jpg"
		},
		{
			"mimeType":"image/jpeg",
			"name":"black-plastic-bag-texture_849134-13-3457697143",
			"uri":"black-plastic-bag-texture_849134-13-3457697143.jpg"
		}
	],
	"accessors":[
		{
			"bufferView":0,
			"componentType":5126,
			"count":3136,
			"max":[
				0.4226037561893463,
				0.7078566551208496,
				0.423584520816803
			],
			"min":[
				-0.3641144633293152,
				-0.9400506019592285,
				-0.3903709650039673
			],
			"type":"VEC3"
		},
		{
			"bufferView":1,
			"componentType":5126,
			"count":3136,
			"type":"VEC3"
		},
		{
			"bufferView":2,
			"componentType":5126,
			"count":3136,
			"type":"VEC2"
		},
		{
			"bufferView":3,
			"componentType":5123,
			"count":5466,
			"type":"SCALAR"
		},
		{
			"bufferView":4,
			"componentType":5126,
			"count":400,
			"max":[
				0.4324159622192383,
				0.7930707931518555,
				0.45175236463546753
			],
			"min":[
				-0.37167826294898987,
				-0.06682414561510086,
				-0.03075346350669861
			],
			"type":"VEC3"
		},
		{
			"bufferView":5,
			"componentType":5126,
			"count":400,
			"type":"VEC3"
		},
		{
			"bufferView":6,
			"componentType":5126,
			"count":400,
			"type":"VEC2"
		},
		{
			"bufferView":7,
			"componentType":5123,
			"count":696,
			"type":"SCALAR"
		}
	],
	"bufferViews":[
		{
			"buffer":0,
			"byteLength":37632,
			"byteOffset":0,
			"target":34962
		},
		{
			"buffer":0,
			"byteLength":37632,
			"byteOffset":37632,
			"target":34962
		},
		{
			"buffer":0,
			"byteLength":25088,
			"byteOffset":75264,
			"target":34962
		},
		{
			"buffer":0,
			"byteLength":10932,
			"byteOffset":100352,
			"target":34963
		},
		{
			"buffer":0,
			"byteLength":4800,
			"byteOffset":111284,
			"target":34962
		},
		{
			"buffer":0,
			"byteLength":4800,
			"byteOffset":116084,
			"target":34962
		},
		{
			"buffer":0,
			"byteLength":3200,
			"byteOffset":120884,
			"target":34962
		},
		{
			"buffer":0,
			"byteLength":1392,
			"byteOffset":124084,
			"target":34963
		}
	],
	"samplers":[
		{
			"magFilter":9729,
			"minFilter":9987
		}
	],
	"buffers":[
		{
			"byteLength":125476,
			"uri":"hidrante.bin"
		}
	]
}
