{
	"asset":{
		"generator":"Khronos glTF Blender I/O v5.1.18",
		"version":"2.0"
	},
	"scene":0,
	"scenes":[
		{
			"name":"Scene",
			"nodes":[
				0,
				1
			]
		}
	],
	"nodes":[
		{
			"mesh":0,
			"name":"Cylinder"
		},
		{
			"mesh":1,
			"name":"Cylinder.001"
		}
	],
	"materials":[
		{
			"doubleSided":true,
			"name":"Material.001",
			"pbrMetallicRoughness":{
				"baseColorTexture":{
					"index":0
				},
				"metallicFactor":0,
				"roughnessFactor":0.5
			}
		}
	],
	"meshes":[
		{
			"name":"Cylinder",
			"primitives":[
				{
					"attributes":{
						"POSITION":0,
						"NORMAL":1,
						"TEXCOORD_0":2
					},
					"indices":3,
					"material":0
				}
			]
		},
		{
			"name":"Cylinder.001",
			"primitives":[
				{
					"attributes":{
						"POSITION":4,
						"NORMAL":5,
						"TEXCOORD_0":6
					},
					"indices":7,
					"material":0
				}
			]
		}
	],
	"textures":[
		{
			"sampler":0,
			"source":0
		}
	],
	"images":[
		{
			"mimeType":"image/jpeg",
			"name":"textura-de-ferro-vintage-close-up-superficie-de-metal-como-plano-de-fundo_84485-428-3367357275",
			"uri":"textura-de-ferro-vintage-close-up-superficie-de-metal-como-plano-de-fundo_84485-428-3367357275.jpg"
		}
	],
	"accessors":[
		{
			"bufferView":0,
			"componentType":5126,
			"count":160,
			"max":[
				1.2214183807373047,
				2.470163106918335,
				1.2214183807373047
			],
			"min":[
				-1.2214183807373047,
				-0.009835869073867798,
				-1.2214183807373047
			],
			"type":"VEC3"
		},
		{
			"bufferView":1,
			"componentType":5126,
			"count":160,
			"type":"VEC3"
		},
		{
			"bufferView":2,
			"componentType":5126,
			"count":160,
			"type":"VEC2"
		},
		{
			"bufferView":3,
			"componentType":5123,
			"count":282,
			"type":"SCALAR"
		},
		{
			"bufferView":4,
			"componentType":5126,
			"count":2976,
			"max":[
				1.3342339992523193,
				3.029782772064209,
				1.3342339992523193
			],
			"min":[
				-1.3342339992523193,
				2.452439546585083,
				-1.3342339992523193
			],
			"type":"VEC3"
		},
		{
			"bufferView":5,
			"componentType":5126,
			"count":2976,
			"type":"VEC3"
		},
		{
			"bufferView":6,
			"componentType":5126,
			"count":2976,
			"type":"VEC2"
		},
		{
			"bufferView":7,
			"componentType":5123,
			"count":4698,
			"type":"SCALAR"
		}
	],
	"bufferViews":[
		{
			"buffer":0,
			"byteLength":1920,
			"byteOffset":0,
			"target":34962
		},
		{
			"buffer":0,
			"byteLength":1920,
			"byteOffset":1920,
			"target":34962
		},
		{
			"buffer":0,
			"byteLength":1280,
			"byteOffset":3840,
			"target":34962
		},
		{
			"buffer":0,
			"byteLength":564,
			"byteOffset":5120,
			"target":34963
		},
		{
			"buffer":0,
			"byteLength":35712,
			"byteOffset":5684,
			"target":34962
		},
		{
			"buffer":0,
			"byteLength":35712,
			"byteOffset":41396,
			"target":34962
		},
		{
			"buffer":0,
			"byteLength":23808,
			"byteOffset":77108,
			"target":34962
		},
		{
			"buffer":0,
			"byteLength":9396,
			"byteOffset":100916,
			"target":34963
		}
	],
	"samplers":[
		{
			"magFilter":9729,
			"minFilter":9987
		}
	],
	"buffers":[
		{
			"byteLength":110312,
			"uri":"lixo.bin"
		}
	]
}
