{
	"asset":{
		"generator":"Khronos glTF Blender I/O v5.1.18",
		"version":"2.0"
	},
	"scene":0,
	"scenes":[
		{
			"name":"Scene",
			"nodes":[
				0,
				1,
				2
			]
		}
	],
	"nodes":[
		{
			"mesh":0,
			"name":"Cylinder.002",
			"rotation":[
				0.08601055294275284,
				0.020903002470731735,
				-0.1629243791103363,
				0.982660174369812
			],
			"translation":[
				-2.901376247406006,
				0.2083861529827118,
				-2.9144554138183594
			]
		},
		{
			"mesh":1,
			"name":"Cylinder.003",
			"translation":[
				-2.446396589279175,
				2.5537579858792014e-05,
				-2.700990676879883
			]
		},
		{
			"mesh":2,
			"name":"Sphere",
			"translation":[
				-2.5505642890930176,
				1.9276764392852783,
				-2.7289483547210693
			]
		}
	],
	"materials":[
		{
			"doubleSided":true,
			"name":"Material.002",
			"pbrMetallicRoughness":{
				"baseColorTexture":{
					"index":0
				},
				"metallicFactor":0,
				"roughnessFactor":0.5
			}
		},
		{
			"doubleSided":true,
			"name":"Material.003",
			"pbrMetallicRoughness":{
				"baseColorTexture":{
					"index":1
				},
				"metallicFactor":0,
				"roughnessFactor":0.5
			}
		}
	],
	"meshes":[
		{
			"name":"Cylinder.002",
			"primitives":[
				{
					"attributes":{
						"POSITION":0,
						"NORMAL":1,
						"TEXCOORD_0":2
					},
					"indices":3,
					"material":0
				}
			]
		},
		{
			"name":"Cylinder.003",
			"primitives":[
				{
					"attributes":{
						"POSITION":4,
						"NORMAL":5,
						"TEXCOORD_0":6
					},
					"indices":7,
					"material":0
				}
			]
		},
		{
			"name":"Sphere",
			"primitives":[
				{
					"attributes":{
						"POSITION":8,
						"NORMAL":9,
						"TEXCOORD_0":10
					},
					"indices":11,
					"material":1
				}
			]
		}
	],
	"textures":[
		{
			"sampler":0,
			"source":0
		},
		{
			"sampler":0,
			"source":1
		}
	],
	"images":[
		{
			"mimeType":"image/jpeg",
			"name":"textura-de-ferro-vintage-close-up-superficie-de-metal-como-plano-de-fundo_84485-428-3367357275",
			"uri":"textura-de-ferro-vintage-close-up-superficie-de-metal-como-plano-de-fundo_84485-428-3367357275.jpg"
		},
		{
			"mimeType":"image/jpeg",
			"name":"black-plastic-bag-texture_849134-13-3457697143",
			"uri":"black-plastic-bag-texture_849134-13-3457697143.jpg"
		}
	],
	"accessors":[
		{
			"bufferView":0,
			"componentType":5126,
			"count":2976,
			"max":[
				1.3342339992523193,
				3.029782772064209,
				1.3342339992523193
			],
			"min":[
				-1.3342339992523193,
				2.452439546585083,
				-1.3342339992523193
			],
			"type":"VEC3"
		},
		{
			"bufferView":1,
			"componentType":5126,
			"count":2976,
			"type":"VEC3"
		},
		{
			"bufferView":2,
			"componentType":5126,
			"count":2976,
			"type":"VEC2"
		},
		{
			"bufferView":3,
			"componentType":5123,
			"count":4698,
			"type":"SCALAR"
		},
		{
			"bufferView":4,
			"componentType":5126,
			"count":160,
			"max":[
				1.2214183807373047,
				2.470163106918335,
				1.2214183807373047
			],
			"min":[
				-1.2214183807373047,
				-0.009835869073867798,
				-1.2214183807373047
			],
			"type":"VEC3"
		},
		{
			"bufferView":5,
			"componentType":5126,
			"count":160,
			"type":"VEC3"
		},
		{
			"bufferView":6,
			"componentType":5126,
			"count":160,
			"type":"VEC2"
		},
		{
			"bufferView":7,
			"componentType":5123,
			"count":282,
			"type":"SCALAR"
		},
		{
			"bufferView":8,
			"componentType":5126,
			"count":1984,
			"max":[
				0.9999997019767761,
				1.0139633417129517,
				0.9999993443489075
			],
			"min":[
				-1.110524296760559,
				-1,
				-1.1751662492752075
			],
			"type":"VEC3"
		},
		{
			"bufferView":9,
			"componentType":5126,
			"count":1984,
			"type":"VEC3"
		},
		{
			"bufferView":10,
			"componentType":5126,
			"count":1984,
			"type":"VEC2"
		},
		{
			"bufferView":11,
			"componentType":5123,
			"count":2880,
			"type":"SCALAR"
		}
	],
	"bufferViews":[
		{
			"buffer":0,
			"byteLength":35712,
			"byteOffset":0,
			"target":34962
		},
		{
			"buffer":0,
			"byteLength":35712,
			"byteOffset":35712,
			"target":34962
		},
		{
			"buffer":0,
			"byteLength":23808,
			"byteOffset":71424,
			"target":34962
		},
		{
			"buffer":0,
			"byteLength":9396,
			"byteOffset":95232,
			"target":34963
		},
		{
			"buffer":0,
			"byteLength":1920,
			"byteOffset":104628,
			"target":34962
		},
		{
			"buffer":0,
			"byteLength":1920,
			"byteOffset":106548,
			"target":34962
		},
		{
			"buffer":0,
			"byteLength":1280,
			"byteOffset":108468,
			"target":34962
		},
		{
			"buffer":0,
			"byteLength":564,
			"byteOffset":109748,
			"target":34963
		},
		{
			"buffer":0,
			"byteLength":23808,
			"byteOffset":110312,
			"target":34962
		},
		{
			"buffer":0,
			"byteLength":23808,
			"byteOffset":134120,
			"target":34962
		},
		{
			"buffer":0,
			"byteLength":15872,
			"byteOffset":157928,
			"target":34962
		},
		{
			"buffer":0,
			"byteLength":5760,
			"byteOffset":173800,
			"target":34963
		}
	],
	"samplers":[
		{
			"magFilter":9729,
			"minFilter":9987
		}
	],
	"buffers":[
		{
			"byteLength":179560,
			"uri":"lixo2.bin"
		}
	]
}
