{
	"asset":{
		"generator":"Khronos glTF Blender I/O v5.1.18",
		"version":"2.0"
	},
	"extensionsUsed":[
		"KHR_materials_emissive_strength",
		"KHR_materials_specular"
	],
	"scene":0,
	"scenes":[
		{
			"name":"Scene",
			"nodes":[
				0,
				1
			]
		}
	],
	"nodes":[
		{
			"mesh":0,
			"name":"Plane"
		},
		{
			"mesh":1,
			"name":"Plane.001"
		}
	],
	"materials":[
		{
			"doubleSided":true,
			"extensions":{
				"KHR_materials_specular":{
					"specularFactor":0.7162162065505981
				}
			},
			"name":"Material.001",
			"pbrMetallicRoughness":{
				"baseColorFactor":[
					0.800000011920929,
					0.800000011920929,
					0.800000011920929,
					1
				],
				"metallicFactor":0.8175675868988037,
				"roughnessFactor":0.4054054021835327
			}
		},
		{
			"doubleSided":true,
			"emissiveFactor":[
				1,
				0.8743554949760437,
				0.4034065902233124
			],
			"extensions":{
				"KHR_materials_emissive_strength":{
					"emissiveStrength":7.899999618530273
				}
			},
			"name":"Material.002",
			"pbrMetallicRoughness":{
				"baseColorFactor":[
					0,
					0,
					0,
					1
				]
			}
		}
	],
	"meshes":[
		{
			"name":"Mesh",
			"primitives":[
				{
					"attributes":{
						"POSITION":0,
						"NORMAL":1,
						"TEXCOORD_0":2
					},
					"indices":3,
					"material":0
				}
			]
		},
		{
			"name":"Mesh",
			"primitives":[
				{
					"attributes":{
						"POSITION":4,
						"NORMAL":5,
						"TEXCOORD_0":6
					},
					"indices":7,
					"material":1
				}
			]
		}
	],
	"accessors":[
		{
			"bufferView":0,
			"componentType":5126,
			"count":27508,
			"max":[
				0.9166668653488159,
				13.752955436706543,
				0.9166668653488159
			],
			"min":[
				-0.9166668653488159,
				0,
				-3.6118741035461426
			],
			"type":"VEC3"
		},
		{
			"bufferView":1,
			"componentType":5126,
			"count":27508,
			"type":"VEC3"
		},
		{
			"bufferView":2,
			"componentType":5126,
			"count":27508,
			"type":"VEC2"
		},
		{
			"bufferView":3,
			"componentType":5123,
			"count":158208,
			"type":"SCALAR"
		},
		{
			"bufferView":4,
			"componentType":5126,
			"count":5118,
			"max":[
				0.4073061943054199,
				13.32394790649414,
				-1.8113105297088623
			],
			"min":[
				-0.4073061943054199,
				13.063525199890137,
				-3.52398943901062
			],
			"type":"VEC3"
		},
		{
			"bufferView":5,
			"componentType":5126,
			"count":5118,
			"type":"VEC3"
		},
		{
			"bufferView":6,
			"componentType":5126,
			"count":5118,
			"type":"VEC2"
		},
		{
			"bufferView":7,
			"componentType":5123,
			"count":29184,
			"type":"SCALAR"
		}
	],
	"bufferViews":[
		{
			"buffer":0,
			"byteLength":330096,
			"byteOffset":0,
			"target":34962
		},
		{
			"buffer":0,
			"byteLength":330096,
			"byteOffset":330096,
			"target":34962
		},
		{
			"buffer":0,
			"byteLength":220064,
			"byteOffset":660192,
			"target":34962
		},
		{
			"buffer":0,
			"byteLength":316416,
			"byteOffset":880256,
			"target":34963
		},
		{
			"buffer":0,
			"byteLength":61416,
			"byteOffset":1196672,
			"target":34962
		},
		{
			"buffer":0,
			"byteLength":61416,
			"byteOffset":1258088,
			"target":34962
		},
		{
			"buffer":0,
			"byteLength":40944,
			"byteOffset":1319504,
			"target":34962
		},
		{
			"buffer":0,
			"byteLength":58368,
			"byteOffset":1360448,
			"target":34963
		}
	],
	"buffers":[
		{
			"byteLength":1418816,
			"uri":"StreetLight.bin"
		}
	]
}
