{
	"asset":{
		"generator":"Khronos glTF Blender I/O v5.1.19",
		"version":"2.0"
	},
	"scene":0,
	"scenes":[
		{
			"name":"Scene",
			"nodes":[
				0,
				1,
				2,
				3,
				4,
				5,
				6,
				7,
				8,
				9,
				10,
				11,
				12,
				13,
				14,
				15,
				16,
				17
			]
		}
	],
	"nodes":[
		{
			"mesh":0,
			"name":"imagetostl_mesh0"
		},
		{
			"mesh":1,
			"name":"imagetostl_mesh1"
		},
		{
			"mesh":2,
			"name":"imagetostl_mesh2"
		},
		{
			"mesh":3,
			"name":"imagetostl_mesh3"
		},
		{
			"mesh":4,
			"name":"imagetostl_mesh4"
		},
		{
			"mesh":5,
			"name":"imagetostl_mesh5"
		},
		{
			"mesh":6,
			"name":"imagetostl_mesh6"
		},
		{
			"mesh":7,
			"name":"imagetostl_mesh7"
		},
		{
			"mesh":8,
			"name":"imagetostl_mesh8"
		},
		{
			"mesh":9,
			"name":"imagetostl_mesh9"
		},
		{
			"mesh":10,
			"name":"imagetostl_mesh10"
		},
		{
			"mesh":11,
			"name":"imagetostl_mesh11"
		},
		{
			"mesh":12,
			"name":"imagetostl_mesh12"
		},
		{
			"mesh":13,
			"name":"imagetostl_mesh13"
		},
		{
			"mesh":14,
			"name":"imagetostl_mesh14"
		},
		{
			"mesh":15,
			"name":"imagetostl_mesh15"
		},
		{
			"mesh":16,
			"name":"imagetostl_mesh16"
		},
		{
			"mesh":17,
			"name":"imagetostl_mesh17"
		}
	],
	"materials":[
		{
			"doubleSided":true,
			"name":"mat0",
			"pbrMetallicRoughness":{
				"baseColorFactor":[
					0.41960784792900085,
					0.41960784792900085,
					0.41960784792900085,
					1
				],
				"metallicFactor":0
			}
		},
		{
			"doubleSided":true,
			"name":"mat1",
			"pbrMetallicRoughness":{
				"baseColorFactor":[
					0,
					0,
					0,
					1
				],
				"metallicFactor":0
			}
		},
		{
			"doubleSided":true,
			"name":"mat2",
			"pbrMetallicRoughness":{
				"baseColorFactor":[
					0.01568627543747425,
					0.01568627543747425,
					0.01568627543747425,
					1
				],
				"metallicFactor":0
			}
		},
		{
			"doubleSided":true,
			"name":"mat3",
			"pbrMetallicRoughness":{
				"baseColorFactor":[
					0.01568627543747425,
					0.01568627543747425,
					0.01568627543747425,
					1
				],
				"metallicFactor":0
			}
		},
		{
			"doubleSided":true,
			"name":"mat4",
			"pbrMetallicRoughness":{
				"baseColorFactor":[
					0.41960784792900085,
					0.41960784792900085,
					0.41960784792900085,
					1
				],
				"metallicFactor":0
			}
		},
		{
			"doubleSided":true,
			"name":"mat5",
			"pbrMetallicRoughness":{
				"baseColorFactor":[
					0,
					0,
					0,
					1
				],
				"metallicFactor":0
			}
		},
		{
			"doubleSided":true,
			"name":"mat6",
			"pbrMetallicRoughness":{
				"baseColorFactor":[
					0.01568627543747425,
					0.01568627543747425,
					0.01568627543747425,
					1
				],
				"metallicFactor":0
			}
		},
		{
			"doubleSided":true,
			"name":"mat7",
			"pbrMetallicRoughness":{
				"baseColorFactor":[
					0.41960784792900085,
					0.41960784792900085,
					0.41960784792900085,
					1
				],
				"metallicFactor":0
			}
		},
		{
			"doubleSided":true,
			"name":"mat8",
			"pbrMetallicRoughness":{
				"baseColorFactor":[
					0,
					0,
					0,
					1
				],
				"metallicFactor":0
			}
		},
		{
			"doubleSided":true,
			"name":"mat9",
			"pbrMetallicRoughness":{
				"baseColorFactor":[
					0.01568627543747425,
					0.01568627543747425,
					0.01568627543747425,
					1
				],
				"metallicFactor":0
			}
		},
		{
			"doubleSided":true,
			"name":"mat10",
			"pbrMetallicRoughness":{
				"baseColorFactor":[
					0.41960784792900085,
					0.41960784792900085,
					0.41960784792900085,
					1
				],
				"metallicFactor":0
			}
		},
		{
			"doubleSided":true,
			"name":"mat11",
			"pbrMetallicRoughness":{
				"baseColorFactor":[
					0,
					0,
					0,
					1
				],
				"metallicFactor":0
			}
		},
		{
			"doubleSided":true,
			"name":"mat12",
			"pbrMetallicRoughness":{
				"baseColorFactor":[
					0.1411764770746231,
					0.15294118225574493,
					0.16078431904315948,
					1
				],
				"metallicFactor":0
			}
		},
		{
			"doubleSided":true,
			"name":"mat13",
			"pbrMetallicRoughness":{
				"baseColorFactor":[
					0.6392157077789307,
					0.0117647061124444,
					0.003921568859368563,
					1
				],
				"metallicFactor":0
			}
		},
		{
			"doubleSided":true,
			"name":"mat14",
			"pbrMetallicRoughness":{
				"baseColorFactor":[
					0,
					0,
					0,
					1
				],
				"metallicFactor":0
			}
		},
		{
			"doubleSided":true,
			"name":"mat15",
			"pbrMetallicRoughness":{
				"baseColorFactor":[
					0.3921568691730499,
					0.43529412150382996,
					0.48235294222831726,
					1
				],
				"metallicFactor":0
			}
		},
		{
			"doubleSided":true,
			"name":"mat16",
			"pbrMetallicRoughness":{
				"baseColorFactor":[
					0.800000011920929,
					0,
					0,
					1
				],
				"metallicFactor":0
			}
		},
		{
			"doubleSided":true,
			"name":"mat17",
			"pbrMetallicRoughness":{
				"baseColorFactor":[
					0.800000011920929,
					0.800000011920929,
					0.800000011920929,
					1
				],
				"metallicFactor":0
			}
		}
	],
	"meshes":[
		{
			"name":"imagetostl_mesh0",
			"primitives":[
				{
					"attributes":{
						"POSITION":0,
						"NORMAL":1
					},
					"indices":2,
					"material":0
				}
			]
		},
		{
			"name":"imagetostl_mesh1",
			"primitives":[
				{
					"attributes":{
						"POSITION":3,
						"NORMAL":4
					},
					"indices":5,
					"material":1
				}
			]
		},
		{
			"name":"imagetostl_mesh2",
			"primitives":[
				{
					"attributes":{
						"POSITION":6,
						"NORMAL":7
					},
					"indices":8,
					"material":2
				}
			]
		},
		{
			"name":"imagetostl_mesh3",
			"primitives":[
				{
					"attributes":{
						"POSITION":9,
						"NORMAL":10
					},
					"indices":11,
					"material":3
				}
			]
		},
		{
			"name":"imagetostl_mesh4",
			"primitives":[
				{
					"attributes":{
						"POSITION":12,
						"NORMAL":13
					},
					"indices":14,
					"material":4
				}
			]
		},
		{
			"name":"imagetostl_mesh5",
			"primitives":[
				{
					"attributes":{
						"POSITION":15,
						"NORMAL":16
					},
					"indices":17,
					"material":5
				}
			]
		},
		{
			"name":"imagetostl_mesh6",
			"primitives":[
				{
					"attributes":{
						"POSITION":18,
						"NORMAL":19
					},
					"indices":20,
					"material":6
				}
			]
		},
		{
			"name":"imagetostl_mesh7",
			"primitives":[
				{
					"attributes":{
						"POSITION":21,
						"NORMAL":22
					},
					"indices":23,
					"material":7
				}
			]
		},
		{
			"name":"imagetostl_mesh8",
			"primitives":[
				{
					"attributes":{
						"POSITION":24,
						"NORMAL":25
					},
					"indices":26,
					"material":8
				}
			]
		},
		{
			"name":"imagetostl_mesh9",
			"primitives":[
				{
					"attributes":{
						"POSITION":27,
						"NORMAL":28
					},
					"indices":29,
					"material":9
				}
			]
		},
		{
			"name":"imagetostl_mesh10",
			"primitives":[
				{
					"attributes":{
						"POSITION":30,
						"NORMAL":31
					},
					"indices":32,
					"material":10
				}
			]
		},
		{
			"name":"imagetostl_mesh11",
			"primitives":[
				{
					"attributes":{
						"POSITION":33,
						"NORMAL":34
					},
					"indices":35,
					"material":11
				}
			]
		},
		{
			"name":"imagetostl_mesh12",
			"primitives":[
				{
					"attributes":{
						"POSITION":36,
						"NORMAL":37
					},
					"indices":38,
					"material":12
				}
			]
		},
		{
			"name":"imagetostl_mesh13",
			"primitives":[
				{
					"attributes":{
						"POSITION":39,
						"NORMAL":40
					},
					"indices":41,
					"material":13
				}
			]
		},
		{
			"name":"imagetostl_mesh14",
			"primitives":[
				{
					"attributes":{
						"POSITION":42,
						"NORMAL":43
					},
					"indices":44,
					"material":14
				}
			]
		},
		{
			"name":"imagetostl_mesh15",
			"primitives":[
				{
					"attributes":{
						"POSITION":45,
						"NORMAL":46
					},
					"indices":47,
					"material":15
				}
			]
		},
		{
			"name":"imagetostl_mesh16",
			"primitives":[
				{
					"attributes":{
						"POSITION":48,
						"NORMAL":49
					},
					"indices":50,
					"material":16
				}
			]
		},
		{
			"name":"imagetostl_mesh17",
			"primitives":[
				{
					"attributes":{
						"POSITION":51,
						"NORMAL":52
					},
					"indices":53,
					"material":17
				}
			]
		}
	],
	"accessors":[
		{
			"bufferView":0,
			"componentType":5126,
			"count":1690,
			"max":[
				1.2227799892425537,
				-1.2895530462265015,
				0.2635610103607178
			],
			"min":[
				0.890978991985321,
				-2.0320160388946533,
				-0.446615993976593
			],
			"type":"VEC3"
		},
		{
			"bufferView":1,
			"componentType":5126,
			"count":1690,
			"type":"VEC3"
		},
		{
			"bufferView":2,
			"componentType":5123,
			"count":2583,
			"type":"SCALAR"
		},
		{
			"bufferView":3,
			"componentType":5126,
			"count":903,
			"max":[
				1.2129709720611572,
				-1.3261840343475342,
				0.2266020029783249
			],
			"min":[
				1.189803957939148,
				-1.9618949890136719,
				-0.40965598821640015
			],
			"type":"VEC3"
		},
		{
			"bufferView":4,
			"componentType":5126,
			"count":903,
			"type":"VEC3"
		},
		{
			"bufferView":5,
			"componentType":5123,
			"count":1140,
			"type":"SCALAR"
		},
		{
			"bufferView":6,
			"componentType":5126,
			"count":1220,
			"max":[
				1.2081689834594727,
				-1.2096890211105347,
				0.34356001019477844
			],
			"min":[
				0.890978991985321,
				-2.078389883041382,
				-0.5266150236129761
			],
			"type":"VEC3"
		},
		{
			"bufferView":7,
			"componentType":5126,
			"count":1220,
			"type":"VEC3"
		},
		{
			"bufferView":8,
			"componentType":5123,
			"count":1800,
			"type":"SCALAR"
		},
		{
			"bufferView":9,
			"componentType":5126,
			"count":1214,
			"max":[
				1.2093479633331299,
				2.448251962661743,
				0.36758801341056824
			],
			"min":[
				0.8921579718589783,
				1.5795509815216064,
				-0.5025860071182251
			],
			"type":"VEC3"
		},
		{
			"bufferView":10,
			"componentType":5126,
			"count":1214,
			"type":"VEC3"
		},
		{
			"bufferView":11,
			"componentType":5123,
			"count":1800,
			"type":"SCALAR"
		},
		{
			"bufferView":12,
			"componentType":5126,
			"count":1696,
			"max":[
				1.223958969116211,
				2.3683888912200928,
				0.28758901357650757
			],
			"min":[
				0.8921579718589783,
				1.6259260177612305,
				-0.4225879907608032
			],
			"type":"VEC3"
		},
		{
			"bufferView":13,
			"componentType":5126,
			"count":1696,
			"type":"VEC3"
		},
		{
			"bufferView":14,
			"componentType":5123,
			"count":2583,
			"type":"SCALAR"
		},
		{
			"bufferView":15,
			"componentType":5126,
			"count":896,
			"max":[
				1.2141499519348145,
				2.3317580223083496,
				0.2506299912929535
			],
			"min":[
				1.1909830570220947,
				1.696045994758606,
				-0.38562801480293274
			],
			"type":"VEC3"
		},
		{
			"bufferView":16,
			"componentType":5126,
			"count":896,
			"type":"VEC3"
		},
		{
			"bufferView":17,
			"componentType":5123,
			"count":1140,
			"type":"SCALAR"
		},
		{
			"bufferView":18,
			"componentType":5126,
			"count":1204,
			"max":[
				-0.9120510220527649,
				2.448251962661743,
				0.36692801117897034
			],
			"min":[
				-1.2292410135269165,
				1.5795509815216064,
				-0.503246009349823
			],
			"type":"VEC3"
		},
		{
			"bufferView":19,
			"componentType":5126,
			"count":1204,
			"type":"VEC3"
		},
		{
			"bufferView":20,
			"componentType":5123,
			"count":1800,
			"type":"SCALAR"
		},
		{
			"bufferView":21,
			"componentType":5126,
			"count":1688,
			"max":[
				-0.9120510220527649,
				2.3683888912200928,
				0.28692999482154846
			],
			"min":[
				-1.2438520193099976,
				1.6259260177612305,
				-0.42324700951576233
			],
			"type":"VEC3"
		},
		{
			"bufferView":22,
			"componentType":5126,
			"count":1688,
			"type":"VEC3"
		},
		{
			"bufferView":23,
			"componentType":5123,
			"count":2583,
			"type":"SCALAR"
		},
		{
			"bufferView":24,
			"componentType":5126,
			"count":904,
			"max":[
				-1.2108759880065918,
				2.3317580223083496,
				0.24997000396251678
			],
			"min":[
				-1.234043002128601,
				1.696045994758606,
				-0.38628798723220825
			],
			"type":"VEC3"
		},
		{
			"bufferView":25,
			"componentType":5126,
			"count":904,
			"type":"VEC3"
		},
		{
			"bufferView":26,
			"componentType":5123,
			"count":1140,
			"type":"SCALAR"
		},
		{
			"bufferView":27,
			"componentType":5126,
			"count":1216,
			"max":[
				-0.9085419774055481,
				-1.2096890211105347,
				0.34290000796318054
			],
			"min":[
				-1.2257330417633057,
				-2.078389883041382,
				-0.5272740125656128
			],
			"type":"VEC3"
		},
		{
			"bufferView":28,
			"componentType":5126,
			"count":1216,
			"type":"VEC3"
		},
		{
			"bufferView":29,
			"componentType":5123,
			"count":1800,
			"type":"SCALAR"
		},
		{
			"bufferView":30,
			"componentType":5126,
			"count":1693,
			"max":[
				-0.9085419774055481,
				-1.2895530462265015,
				0.2629010081291199
			],
			"min":[
				-1.2403429746627808,
				-2.0320160388946533,
				-0.4472759962081909
			],
			"type":"VEC3"
		},
		{
			"bufferView":31,
			"componentType":5126,
			"count":1693,
			"type":"VEC3"
		},
		{
			"bufferView":32,
			"componentType":5123,
			"count":2583,
			"type":"SCALAR"
		},
		{
			"bufferView":33,
			"componentType":5126,
			"count":899,
			"max":[
				-1.207368016242981,
				-1.3261840343475342,
				0.225942000746727
			],
			"min":[
				-1.2305339574813843,
				-1.9618949890136719,
				-0.41031599044799805
			],
			"type":"VEC3"
		},
		{
			"bufferView":34,
			"componentType":5126,
			"count":899,
			"type":"VEC3"
		},
		{
			"bufferView":35,
			"componentType":5123,
			"count":1140,
			"type":"SCALAR"
		},
		{
			"bufferView":36,
			"componentType":5126,
			"count":614,
			"max":[
				1.0720349550247192,
				0.9173499941825867,
				-0.8912590146064758
			],
			"min":[
				-1.0720349550247192,
				-2.2950289249420166,
				-1.4005589485168457
			],
			"type":"VEC3"
		},
		{
			"bufferView":37,
			"componentType":5126,
			"count":614,
			"type":"VEC3"
		},
		{
			"bufferView":38,
			"componentType":5123,
			"count":1020,
			"type":"SCALAR"
		},
		{
			"bufferView":39,
			"componentType":5126,
			"count":2508,
			"max":[
				1.2791939973831177,
				3.139111042022705,
				-0.009166000410914421
			],
			"min":[
				-1.2791939973831177,
				-3.297879934310913,
				-1.3110120296478271
			],
			"type":"VEC3"
		},
		{
			"bufferView":40,
			"componentType":5126,
			"count":2508,
			"type":"VEC3"
		},
		{
			"bufferView":41,
			"componentType":5123,
			"count":4044,
			"type":"SCALAR"
		},
		{
			"bufferView":42,
			"componentType":5126,
			"count":109,
			"max":[
				1.1065829992294312,
				3.044692039489746,
				-0.4313400089740753
			],
			"min":[
				-1.1065829992294312,
				-3.1850709915161133,
				-0.7769970297813416
			],
			"type":"VEC3"
		},
		{
			"bufferView":43,
			"componentType":5126,
			"count":109,
			"type":"VEC3"
		},
		{
			"bufferView":44,
			"componentType":5123,
			"count":222,
			"type":"SCALAR"
		},
		{
			"bufferView":45,
			"componentType":5126,
			"count":675,
			"max":[
				1.2042570114135742,
				3.151289939880371,
				-0.07938999682664871
			],
			"min":[
				-1.2042570114135742,
				-3.333690881729126,
				-0.723583996295929
			],
			"type":"VEC3"
		},
		{
			"bufferView":46,
			"componentType":5126,
			"count":675,
			"type":"VEC3"
		},
		{
			"bufferView":47,
			"componentType":5123,
			"count":1194,
			"type":"SCALAR"
		},
		{
			"bufferView":48,
			"componentType":5126,
			"count":24,
			"max":[
				0.952489972114563,
				-3.1312360763549805,
				-0.6167920231819153
			],
			"min":[
				-0.952489972114563,
				-3.1850709915161133,
				-0.7483279705047607
			],
			"type":"VEC3"
		},
		{
			"bufferView":49,
			"componentType":5126,
			"count":24,
			"type":"VEC3"
		},
		{
			"bufferView":50,
			"componentType":5123,
			"count":48,
			"type":"SCALAR"
		},
		{
			"bufferView":51,
			"componentType":5126,
			"count":158,
			"max":[
				1.0720349550247192,
				1.0896580219268799,
				-0.8912590146064758
			],
			"min":[
				-1.0720349550247192,
				-2.183345079421997,
				-1.3363510370254517
			],
			"type":"VEC3"
		},
		{
			"bufferView":52,
			"componentType":5126,
			"count":158,
			"type":"VEC3"
		},
		{
			"bufferView":53,
			"componentType":5123,
			"count":324,
			"type":"SCALAR"
		}
	],
	"bufferViews":[
		{
			"buffer":0,
			"byteLength":20280,
			"byteOffset":0,
			"target":34962
		},
		{
			"buffer":0,
			"byteLength":20280,
			"byteOffset":20280,
			"target":34962
		},
		{
			"buffer":0,
			"byteLength":5166,
			"byteOffset":40560,
			"target":34963
		},
		{
			"buffer":0,
			"byteLength":10836,
			"byteOffset":45728,
			"target":34962
		},
		{
			"buffer":0,
			"byteLength":10836,
			"byteOffset":56564,
			"target":34962
		},
		{
			"buffer":0,
			"byteLength":2280,
			"byteOffset":67400,
			"target":34963
		},
		{
			"buffer":0,
			"byteLength":14640,
			"byteOffset":69680,
			"target":34962
		},
		{
			"buffer":0,
			"byteLength":14640,
			"byteOffset":84320,
			"target":34962
		},
		{
			"buffer":0,
			"byteLength":3600,
			"byteOffset":98960,
			"target":34963
		},
		{
			"buffer":0,
			"byteLength":14568,
			"byteOffset":102560,
			"target":34962
		},
		{
			"buffer":0,
			"byteLength":14568,
			"byteOffset":117128,
			"target":34962
		},
		{
			"buffer":0,
			"byteLength":3600,
			"byteOffset":131696,
			"target":34963
		},
		{
			"buffer":0,
			"byteLength":20352,
			"byteOffset":135296,
			"target":34962
		},
		{
			"buffer":0,
			"byteLength":20352,
			"byteOffset":155648,
			"target":34962
		},
		{
			"buffer":0,
			"byteLength":5166,
			"byteOffset":176000,
			"target":34963
		},
		{
			"buffer":0,
			"byteLength":10752,
			"byteOffset":181168,
			"target":34962
		},
		{
			"buffer":0,
			"byteLength":10752,
			"byteOffset":191920,
			"target":34962
		},
		{
			"buffer":0,
			"byteLength":2280,
			"byteOffset":202672,
			"target":34963
		},
		{
			"buffer":0,
			"byteLength":14448,
			"byteOffset":204952,
			"target":34962
		},
		{
			"buffer":0,
			"byteLength":14448,
			"byteOffset":219400,
			"target":34962
		},
		{
			"buffer":0,
			"byteLength":3600,
			"byteOffset":233848,
			"target":34963
		},
		{
			"buffer":0,
			"byteLength":20256,
			"byteOffset":237448,
			"target":34962
		},
		{
			"buffer":0,
			"byteLength":20256,
			"byteOffset":257704,
			"target":34962
		},
		{
			"buffer":0,
			"byteLength":5166,
			"byteOffset":277960,
			"target":34963
		},
		{
			"buffer":0,
			"byteLength":10848,
			"byteOffset":283128,
			"target":34962
		},
		{
			"buffer":0,
			"byteLength":10848,
			"byteOffset":293976,
			"target":34962
		},
		{
			"buffer":0,
			"byteLength":2280,
			"byteOffset":304824,
			"target":34963
		},
		{
			"buffer":0,
			"byteLength":14592,
			"byteOffset":307104,
			"target":34962
		},
		{
			"buffer":0,
			"byteLength":14592,
			"byteOffset":321696,
			"target":34962
		},
		{
			"buffer":0,
			"byteLength":3600,
			"byteOffset":336288,
			"target":34963
		},
		{
			"buffer":0,
			"byteLength":20316,
			"byteOffset":339888,
			"target":34962
		},
		{
			"buffer":0,
			"byteLength":20316,
			"byteOffset":360204,
			"target":34962
		},
		{
			"buffer":0,
			"byteLength":5166,
			"byteOffset":380520,
			"target":34963
		},
		{
			"buffer":0,
			"byteLength":10788,
			"byteOffset":385688,
			"target":34962
		},
		{
			"buffer":0,
			"byteLength":10788,
			"byteOffset":396476,
			"target":34962
		},
		{
			"buffer":0,
			"byteLength":2280,
			"byteOffset":407264,
			"target":34963
		},
		{
			"buffer":0,
			"byteLength":7368,
			"byteOffset":409544,
			"target":34962
		},
		{
			"buffer":0,
			"byteLength":7368,
			"byteOffset":416912,
			"target":34962
		},
		{
			"buffer":0,
			"byteLength":2040,
			"byteOffset":424280,
			"target":34963
		},
		{
			"buffer":0,
			"byteLength":30096,
			"byteOffset":426320,
			"target":34962
		},
		{
			"buffer":0,
			"byteLength":30096,
			"byteOffset":456416,
			"target":34962
		},
		{
			"buffer":0,
			"byteLength":8088,
			"byteOffset":486512,
			"target":34963
		},
		{
			"buffer":0,
			"byteLength":1308,
			"byteOffset":494600,
			"target":34962
		},
		{
			"buffer":0,
			"byteLength":1308,
			"byteOffset":495908,
			"target":34962
		},
		{
			"buffer":0,
			"byteLength":444,
			"byteOffset":497216,
			"target":34963
		},
		{
			"buffer":0,
			"byteLength":8100,
			"byteOffset":497660,
			"target":34962
		},
		{
			"buffer":0,
			"byteLength":8100,
			"byteOffset":505760,
			"target":34962
		},
		{
			"buffer":0,
			"byteLength":2388,
			"byteOffset":513860,
			"target":34963
		},
		{
			"buffer":0,
			"byteLength":288,
			"byteOffset":516248,
			"target":34962
		},
		{
			"buffer":0,
			"byteLength":288,
			"byteOffset":516536,
			"target":34962
		},
		{
			"buffer":0,
			"byteLength":96,
			"byteOffset":516824,
			"target":34963
		},
		{
			"buffer":0,
			"byteLength":1896,
			"byteOffset":516920,
			"target":34962
		},
		{
			"buffer":0,
			"byteLength":1896,
			"byteOffset":518816,
			"target":34962
		},
		{
			"buffer":0,
			"byteLength":648,
			"byteOffset":520712,
			"target":34963
		}
	],
	"buffers":[
		{
			"byteLength":521360,
			"uri":"Dodge%20Charger.bin"
		}
	]
}
