{
	"asset":{
		"generator":"Khronos glTF Blender I/O v5.1.18",
		"version":"2.0"
	},
	"extensionsUsed":[
		"KHR_materials_specular",
		"KHR_materials_ior"
	],
	"scene":0,
	"scenes":[
		{
			"name":"Scene",
			"nodes":[
				4
			]
		}
	],
	"nodes":[
		{
			"mesh":0,
			"name":"whell.004"
		},
		{
			"mesh":1,
			"name":"whell.005"
		},
		{
			"mesh":2,
			"name":"whell.006"
		},
		{
			"mesh":3,
			"name":"whell.007"
		},
		{
			"children":[
				0,
				1,
				2,
				3
			],
			"mesh":4,
			"name":"car9"
		}
	],
	"materials":[
		{
			"doubleSided":true,
			"extensions":{
				"KHR_materials_specular":{
					"specularColorFactor":[
						4.0,
						4.0,
						4.0
					]
				},
				"KHR_materials_ior":{
					"ior":1.4500000476837158
				}
			},
			"name":"Material.car9",
			"pbrMetallicRoughness":{
				"baseColorTexture":{
					"index":0
				},
				"roughnessFactor":0.5527864098548889
			}
		}
	],
	"meshes":[
		{
			"name":"car9.009",
			"primitives":[
				{
					"attributes":{
						"POSITION":0,
						"NORMAL":1,
						"TEXCOORD_0":2
					},
					"indices":3,
					"material":0
				}
			]
		},
		{
			"name":"car9.010",
			"primitives":[
				{
					"attributes":{
						"POSITION":4,
						"NORMAL":5,
						"TEXCOORD_0":6
					},
					"indices":7,
					"material":0
				}
			]
		},
		{
			"name":"car9.011",
			"primitives":[
				{
					"attributes":{
						"POSITION":8,
						"NORMAL":9,
						"TEXCOORD_0":10
					},
					"indices":11,
					"material":0
				}
			]
		},
		{
			"name":"car9.012",
			"primitives":[
				{
					"attributes":{
						"POSITION":12,
						"NORMAL":13,
						"TEXCOORD_0":14
					},
					"indices":15,
					"material":0
				}
			]
		},
		{
			"name":"car9.008",
			"primitives":[
				{
					"attributes":{
						"POSITION":16,
						"NORMAL":17,
						"TEXCOORD_0":18
					},
					"indices":19,
					"material":0
				}
			]
		}
	],
	"textures":[
		{
			"sampler":0,
			"source":0
		}
	],
	"images":[
		{
			"mimeType":"image/png",
			"name":"Car Texture 2",
			"uri":"Car%20Texture%202.png"
		}
	],
	"accessors":[
		{
			"bufferView":0,
			"componentType":5126,
			"count":392,
			"max":[
				-0.9272298812866211,
				-0.647849977016449,
				3.749514476680815e-08
			],
			"min":[
				-1.5907424688339233,
				-0.9045051336288452,
				-0.6635124683380127
			],
			"type":"VEC3"
		},
		{
			"bufferView":1,
			"componentType":5126,
			"count":392,
			"type":"VEC3"
		},
		{
			"bufferView":2,
			"componentType":5126,
			"count":392,
			"type":"VEC2"
		},
		{
			"bufferView":3,
			"componentType":5123,
			"count":1050,
			"type":"SCALAR"
		},
		{
			"bufferView":4,
			"componentType":5126,
			"count":392,
			"max":[
				1.5907413959503174,
				-0.6478516459465027,
				3.749521582108173e-08
			],
			"min":[
				0.9272288680076599,
				-0.9045068025588989,
				-0.6635124683380127
			],
			"type":"VEC3"
		},
		{
			"bufferView":5,
			"componentType":5126,
			"count":392,
			"type":"VEC3"
		},
		{
			"bufferView":6,
			"componentType":5126,
			"count":392,
			"type":"VEC2"
		},
		{
			"bufferView":7,
			"componentType":5123,
			"count":1050,
			"type":"SCALAR"
		},
		{
			"bufferView":8,
			"componentType":5126,
			"count":392,
			"max":[
				1.5907424688339233,
				0.9045051336288452,
				-3.024941719331764e-08
			],
			"min":[
				0.9272298812866211,
				0.6478500366210938,
				-0.6635125875473022
			],
			"type":"VEC3"
		},
		{
			"bufferView":9,
			"componentType":5126,
			"count":392,
			"type":"VEC3"
		},
		{
			"bufferView":10,
			"componentType":5126,
			"count":392,
			"type":"VEC2"
		},
		{
			"bufferView":11,
			"componentType":5123,
			"count":1050,
			"type":"SCALAR"
		},
		{
			"bufferView":12,
			"componentType":5126,
			"count":392,
			"max":[
				-0.9272288680076599,
				0.9045068025588989,
				-3.0249491800304895e-08
			],
			"min":[
				-1.5907413959503174,
				0.6478517055511475,
				-0.6635125875473022
			],
			"type":"VEC3"
		},
		{
			"bufferView":13,
			"componentType":5126,
			"count":392,
			"type":"VEC3"
		},
		{
			"bufferView":14,
			"componentType":5126,
			"count":392,
			"type":"VEC2"
		},
		{
			"bufferView":15,
			"componentType":5123,
			"count":1050,
			"type":"SCALAR"
		},
		{
			"bufferView":16,
			"componentType":5126,
			"count":4647,
			"max":[
				2.1402196884155273,
				1.0531977415084839,
				-0.15677833557128906
			],
			"min":[
				-1.9905272722244263,
				-1.0531970262527466,
				-1.5686804056167603
			],
			"type":"VEC3"
		},
		{
			"bufferView":17,
			"componentType":5126,
			"count":4647,
			"type":"VEC3"
		},
		{
			"bufferView":18,
			"componentType":5126,
			"count":4647,
			"type":"VEC2"
		},
		{
			"bufferView":19,
			"componentType":5123,
			"count":11532,
			"type":"SCALAR"
		}
	],
	"bufferViews":[
		{
			"buffer":0,
			"byteLength":4704,
			"byteOffset":0,
			"target":34962
		},
		{
			"buffer":0,
			"byteLength":4704,
			"byteOffset":4704,
			"target":34962
		},
		{
			"buffer":0,
			"byteLength":3136,
			"byteOffset":9408,
			"target":34962
		},
		{
			"buffer":0,
			"byteLength":2100,
			"byteOffset":12544,
			"target":34963
		},
		{
			"buffer":0,
			"byteLength":4704,
			"byteOffset":14644,
			"target":34962
		},
		{
			"buffer":0,
			"byteLength":4704,
			"byteOffset":19348,
			"target":34962
		},
		{
			"buffer":0,
			"byteLength":3136,
			"byteOffset":24052,
			"target":34962
		},
		{
			"buffer":0,
			"byteLength":2100,
			"byteOffset":27188,
			"target":34963
		},
		{
			"buffer":0,
			"byteLength":4704,
			"byteOffset":29288,
			"target":34962
		},
		{
			"buffer":0,
			"byteLength":4704,
			"byteOffset":33992,
			"target":34962
		},
		{
			"buffer":0,
			"byteLength":3136,
			"byteOffset":38696,
			"target":34962
		},
		{
			"buffer":0,
			"byteLength":2100,
			"byteOffset":41832,
			"target":34963
		},
		{
			"buffer":0,
			"byteLength":4704,
			"byteOffset":43932,
			"target":34962
		},
		{
			"buffer":0,
			"byteLength":4704,
			"byteOffset":48636,
			"target":34962
		},
		{
			"buffer":0,
			"byteLength":3136,
			"byteOffset":53340,
			"target":34962
		},
		{
			"buffer":0,
			"byteLength":2100,
			"byteOffset":56476,
			"target":34963
		},
		{
			"buffer":0,
			"byteLength":55764,
			"byteOffset":58576,
			"target":34962
		},
		{
			"buffer":0,
			"byteLength":55764,
			"byteOffset":114340,
			"target":34962
		},
		{
			"buffer":0,
			"byteLength":37176,
			"byteOffset":170104,
			"target":34962
		},
		{
			"buffer":0,
			"byteLength":23064,
			"byteOffset":207280,
			"target":34963
		}
	],
	"samplers":[
		{
			"magFilter":9729,
			"minFilter":9987
		}
	],
	"buffers":[
		{
			"byteLength":230344,
			"uri":"LowPolyCars.bin"
		}
	]
}
